<?xml version="1.0" encoding="utf-8"?>
<!-- Generator: Adobe Illustrator 18.0.0, SVG Export Plug-In . SVG Version: 6.00 Build 0)  -->
<!DOCTYPE svg PUBLIC "-//W3C//DTD SVG 1.1//EN" "http://www.w3.org/Graphics/SVG/1.1/DTD/svg11.dtd" [
	<!ENTITY ns_flows "http://ns.adobe.com/Flows/1.0/">
	<!ENTITY ns_extend "http://ns.adobe.com/Extensibility/1.0/">
	<!ENTITY ns_ai "http://ns.adobe.com/AdobeIllustrator/10.0/">
	<!ENTITY ns_graphs "http://ns.adobe.com/Graphs/1.0/">
	<!ENTITY ns_vars "http://ns.adobe.com/Variables/1.0/">
	<!ENTITY ns_imrep "http://ns.adobe.com/ImageReplacement/1.0/">
	<!ENTITY ns_sfw "http://ns.adobe.com/SaveForWeb/1.0/">
	<!ENTITY ns_custom "http://ns.adobe.com/GenericCustomNamespace/1.0/">
	<!ENTITY ns_adobe_xpath "http://ns.adobe.com/XPath/1.0/">
]>
<svg version="1.1" id="Layer_1" xmlns:x="&ns_extend;" xmlns:i="&ns_ai;" xmlns:graph="&ns_graphs;"
	 xmlns="http://www.w3.org/2000/svg" xmlns:xlink="http://www.w3.org/1999/xlink" xmlns:a="http://ns.adobe.com/AdobeSVGViewerExtensions/3.0/"
	 x="0px" y="0px" viewBox="0 0 300 300" enable-background="new 0 0 300 300" xml:space="preserve">
<metadata>
	<sfw  xmlns="&ns_sfw;">
		<slices></slices>
		<sliceSourceBounds  width="249.8" height="124.8" y="87.3" x="25.4" bottomLeftOrigin="true"></sliceSourceBounds>
	</sfw>
</metadata>
<path display="none" d="M184.1,145.1c0,0.8,0,1.6,0,2.5c-0.4-0.2-0.5-1.6-0.3-2.9c0.5-0.2,0.8,0,1.1,0.5c0.4,0.6,0.8,1.3,1.3,2
	c0.5-0.7,0.9-1.3,1.2-2c0.3-0.5,0.6-0.6,1-0.5c0,1,0,1.9,0,2.9c-0.1,0-0.1,0-0.2,0c0-0.8,0-1.6,0-2.5c-0.1,0-0.1,0-0.2-0.1
	c-0.2,0.2-0.3,0.4-0.5,0.6c-0.3,0.5-0.6,1-1,1.5c-0.4,0.5-0.5,0.6-0.8,0c-0.4-0.6-0.7-1.1-1.1-1.7c-0.1-0.2-0.2-0.3-0.4-0.5
	C184.2,145.1,184.1,145.1,184.1,145.1z"/>
<path display="none" d="M274.6,186.2c-0.5,0.7-0.9,1.4-1.4,2.2c-0.3,0.5-0.5,0.5-0.8,0c-0.5-0.7-0.9-1.5-1.4-2.2c-0.1,0-0.1,0-0.2,0
	c0,0.8,0,1.7,0,2.6c-0.4-0.3-0.5-1.5-0.3-2.9c0.5-0.2,0.8,0,1.1,0.4c0.3,0.6,0.8,1.2,1.1,1.8c0,0,0.1,0,0.2,0.1
	c0.4-0.6,0.8-1.2,1.2-1.9c0.3-0.5,0.6-0.7,1.1-0.5c0.2,1.1,0.1,2.6-0.3,3c0-0.9,0-1.8,0-2.6C274.8,186.2,274.7,186.2,274.6,186.2z"
	/>
<path display="none" d="M180.7,147.6c0-0.4-0.1-0.8-0.1-1.2c0-0.4,0-0.9,0-1.4c-0.5,0-1-0.1-1.5-0.1c0-0.1,0-0.1,0-0.2
	c1.1,0,2.2,0,3.2,0c0,0.1,0,0.1,0,0.2c-0.5,0-0.9,0.1-1.4,0.1c0,0.9,0,1.7,0,2.5C180.9,147.6,180.8,147.6,180.7,147.6z"/>
<path display="none" d="M269.2,186.1c-0.4,0-0.9,0.1-1.4,0.1c0,0.9,0,1.7,0,2.5c-0.1,0-0.2,0-0.3,0c0-0.4-0.1-0.8-0.1-1.2
	c0-0.4,0-0.9,0-1.3c-0.5,0-1-0.1-1.5-0.1c0-0.1,0-0.1,0-0.2c1.1,0,2.2,0,3.2,0C269.2,185.9,269.2,186,269.2,186.1z"/>
<path display="none" fill="#FFFFFF" d="M116.5,189c0.2,0,0.3,0,0.4,0c6.4,0,12.9,0,19.3,0.1c0.9,0,1.8,0.2,2.6,0.4
	c1.4,0.3,2.4,1.2,2.7,2.5c0.4,1.6,0.8,3.2,0.9,4.9c0.2,2.7,0.2,5.4-0.5,8.1c-0.1,0.6-0.3,1.1-0.6,1.7c-0.8,2-2.5,2.7-4.5,2.8
	c-1.7,0.1-3.4,0.1-5.2,0.1c-4.8,0-9.7,0-14.5,0c-0.2,0-0.4,0-0.7,0C116.5,202.6,116.5,195.8,116.5,189z"/>
<path fill="#70A086" d="M147.3,87.9c-6.9,11.9-13.7,23.6-20.5,35.5c0.4,0,0.6,0,0.9,0c6.2,0,12.3,0,18.5,0c0.5,0,0.8,0.2,1.1,0.6
	c0.9,1.6,1.8,3.1,2.7,4.7c0.1,0.2,0.2,0.4,0.3,0.7c-0.4,0-0.7,0-0.9,0c-8.4,0-16.7,0-25.1,0c-0.7,0-1,0.2-1.3,0.8
	c-1.4,2.5-2.9,5-4.3,7.5c-0.2,0.4-0.5,0.6-0.9,0.6c-2.3,0-4.5,0-6.8,0c-0.2,0-0.4,0-0.6,0c0.1-0.3,0.2-0.4,0.3-0.6
	c9.5-16.3,18.9-32.6,28.4-48.9c0.3-0.5,0.6-0.7,1.1-0.7C142.4,88,144.7,87.9,147.3,87.9z"/>
<path fill="#70A086" d="M149.4,103.2c-1,1.7-1.9,3.2-2.8,4.8c-2.3,4-4.6,8-6.9,12c-0.2,0.4-0.5,0.6-1,0.6c-2.3,0-4.6,0-7,0
	c5.9-10.2,11.8-20.4,17.7-30.6c0.1,0.2,0.3,0.4,0.4,0.6c9.5,16.3,18.9,32.7,28.4,49c0.2,0.4,0.2,0.7,0,1c-1.3,1.8-2.5,3.6-3.9,5.5
	C166,131.8,157.8,117.6,149.4,103.2z"/>
<path fill="#70A086" d="M171.7,147.5c-2,0-3.9-0.1-5.7,0c-1.5,0.1-2.3-0.4-2.9-1.7c-1.2-2.4-2.6-4.6-3.9-6.9c-0.2-0.4-0.5-0.6-1-0.6
	c-9.2,0-18.3,0-27.5,0c-0.5,0-0.8-0.1-1-0.6c-0.9-1.6-1.8-3.1-2.7-4.7c-0.1-0.2-0.2-0.4-0.4-0.7c9.6,0,19.1,0,28.8,0
	c-0.2-0.3-0.3-0.5-0.4-0.8c-3-5.1-6-10.3-8.9-15.4c-0.2-0.4-0.2-0.7,0-1.1c1.2-2,2.3-4,3.5-6.1C156.9,121.9,164.2,134.6,171.7,147.5
	z"/>
<path fill="#70A086" d="M112.9,212.6c0-9,0-17.9,0-26.8c0.2,0,0.4,0,0.6,0c6.8,0,13.6,0,20.4,0c1.9,0,3.7,0.1,5.5,0.4
	c3.5,0.5,5.5,2.6,6.2,6c0.6,3,0.6,6,0.4,9c-0.1,1.6-0.2,3.2-0.6,4.7c-0.9,4.3-3.3,6.3-7.7,6.5c-2.8,0.1-5.5,0.2-8.3,0.2
	c-5.2,0-10.5,0-15.7,0C113.5,212.6,113.2,212.6,112.9,212.6z M116.5,189c0,6.9,0,13.7,0,20.5c0.3,0,0.5,0,0.7,0c4.8,0,9.7,0,14.5,0
	c1.7,0,3.4,0,5.2-0.1c2-0.1,3.7-0.8,4.5-2.8c0.2-0.5,0.4-1.1,0.6-1.7c0.6-2.7,0.7-5.4,0.5-8.1c-0.1-1.6-0.5-3.3-0.9-4.9
	c-0.3-1.4-1.4-2.2-2.7-2.5c-0.9-0.2-1.7-0.4-2.6-0.4c-6.4-0.1-12.9-0.1-19.3-0.1C116.8,188.9,116.7,188.9,116.5,189z"/>
<path fill="#70A086" d="M240.2,200.3c0,3.2,0,6.2,0,9.3c7.6,0,15.1,0,22.7,0c0,1.1,0,2,0,3.1c-8.8,0-17.5,0-26.3,0
	c0-8.9,0-17.8,0-26.8c8.8,0,17.5,0,26.2,0c0,1,0,2,0,3.1c-7.6,0-15.1,0-22.7,0c0,2.8,0,5.4,0,8.2c7.2,0,14.4,0,21.7,0
	c0,1.1,0,2.1,0,3.1C254.7,200.3,247.5,200.3,240.2,200.3z"/>
<path fill="#70A086" d="M158.1,212.6c0-8.9,0-17.8,0-26.7c8.7,0,17.5,0,26.2,0c0,1,0,2,0,3c-7.5,0-15.1,0-22.6,0c0,2.8,0,5.5,0,8.3
	c7.2,0,14.4,0,21.7,0c0,1.1,0,2.1,0,3.1c-7.2,0-14.4,0-21.7,0c0,3.1,0,6.1,0,9.2c7.5,0,15.1,0,22.7,0c0,1.1,0,2,0,3.1
	C175.6,212.6,166.9,212.6,158.1,212.6z"/>
<path fill="#70A086" d="M219.7,188.9c-0.3,0-0.5,0-0.8,0c-7.4,0-14.8,0-22.1,0c-0.7,0-0.9-0.2-0.8-0.8c0.1-0.7,0-1.5,0-2.2
	c9.9,0,19.7,0,29.7,0c0,0.8,0,1.7,0,2.5c0,0.2-0.3,0.4-0.4,0.6c-4.7,4.1-9.5,8.1-14.2,12.2c-3.1,2.6-6.2,5.3-9.3,7.9
	c-0.1,0.1-0.3,0.2-0.4,0.3c0,0.1,0.1,0.1,0.1,0.2c8.2,0,16.3,0,24.5,0c0,1,0,2,0,3.1c-10.3,0-20.5,0-30.9,0c0-0.7,0-1.4,0-2.1
	c0-0.2,0.2-0.4,0.4-0.5c8-6.8,15.9-13.6,23.9-20.4c0.2-0.1,0.3-0.3,0.5-0.4C219.7,189,219.7,189,219.7,188.9z"/>
<path fill="#70A086" d="M61.4,212.6c-1.3,0-2.5,0-3.7,0c-0.2,0-0.4-0.3-0.5-0.5c-0.9-1.6-1.8-3.1-2.6-4.7c-0.2-0.4-0.4-0.5-0.9-0.5
	c-6.9,0-13.7,0-20.6,0c-0.4,0-0.6,0.1-0.8,0.5c-0.9,1.6-1.8,3.1-2.6,4.7c-0.2,0.4-0.5,0.5-0.9,0.5c-1.1,0-2.2,0-3.4,0
	c0.1-0.3,0.2-0.5,0.3-0.7c4.9-8.6,9.7-17.1,14.6-25.7c0.2-0.3,0.4-0.5,0.8-0.5c1.6,0,3.1,0,4.7,0c0.4,0,0.6,0.1,0.8,0.5
	c4.9,8.6,9.7,17.2,14.6,25.8C61.2,212.2,61.3,212.4,61.4,212.6z M52.6,203.8c-0.1-0.3-0.2-0.5-0.3-0.7c-2.6-4.6-5.1-9.1-7.7-13.7
	c-0.2-0.4-0.5-0.6-1-0.6c-0.5,0-0.8,0.1-1.1,0.6c-2.6,4.6-5.2,9.1-7.8,13.7c-0.1,0.2-0.2,0.4-0.3,0.6
	C40.5,203.8,46.5,203.8,52.6,203.8z"/>
<path fill="#70A086" d="M98,185.8c1.2,0,2.4,0,3.5,0c0,0.2,0,0.4,0,0.6c0,5.9,0,11.8-0.1,17.6c0,1.3-0.1,2.6-0.4,3.8
	c-0.6,2.5-2.3,4-4.8,4.3c-5.1,0.6-10.1,0.6-15.2,0.5c-2-0.1-4-0.2-5.9-0.5c-2.7-0.3-4.6-2.3-4.9-5c-0.2-2.7-0.3-5.5-0.3-8.3
	c-0.1-4.1,0-8.3,0-12.4c0-0.2,0-0.4,0-0.7c1.2,0,2.4,0,3.6,0c0,0.3,0,0.6,0,0.9c0,6.1,0,12.2,0.1,18.2c0,3.1,0.6,3.9,3.7,4.2
	c3,0.3,6,0.3,8.9,0.3c2.7,0,5.4-0.2,8.1-0.3c0,0,0.1,0,0.1,0c2.7-0.3,3.5-1.2,3.5-3.9c0.1-6.2,0.1-12.4,0.1-18.6
	C98,186.4,98,186.2,98,185.8z"/>
<path fill="#70A086" d="M110.2,141c0.4,0,0.7,0,0.9,0c2.7,0,5.4,0,8.1,0c0.5,0,0.7-0.1,0.9-0.5c1.3-2.2,2.5-4.4,3.8-6.7
	c0.1,0.2,0.2,0.3,0.3,0.4c1.1,1.9,2.2,3.9,3.3,5.8c0.1,0.2,0.1,0.6,0,0.8c-1.1,2-2.3,4-3.5,6c-0.2,0.3-0.4,0.5-0.8,0.5
	c-2.8,0-5.6,0-8.4,0c-0.2,0-0.5-0.1-0.6-0.2C113,145.1,111.7,143.2,110.2,141z"/>
</svg>
