<?xml version="1.0" encoding="utf-8"?>
<!-- Generator: Adobe Illustrator 21.1.0, SVG Export Plug-In . SVG Version: 6.00 Build 0)  -->
<svg version="1.1" id="Layer_1" xmlns="http://www.w3.org/2000/svg" xmlns:xlink="http://www.w3.org/1999/xlink" x="0px" y="0px"
	 viewBox="0 0 300 300" style="enable-background:new 0 0 300 300;" xml:space="preserve">
<g>
	<path d="M41.5,158.3c-5,7.3-10.6,10.9-16.7,10.9c-4.4,0-8-1.8-10.7-5.4c-2.7-3.6-4.1-8.2-4.1-13.9c0-7.7,2-15.4,6-23
		c4-7.7,9.2-13.9,15.6-18.6c6.4-4.7,12.6-7.1,18.7-7.1c3.9,0,7.1,1.3,9.4,3.9c2.3,2.6,3.5,6.2,3.5,10.6c0,10.3-5.1,18.5-15.4,24.6
		v20.5c0,2,0.1,3.3,0.4,3.9c0.2,0.7,0.9,1,2,1c2.4,0,5.3-2.2,8.6-6.5l1.6,1.3c-2.3,3.3-4.4,5.6-6.2,6.9c-1.9,1.3-3.8,2-5.9,2
		c-2.3,0-4-0.6-5.1-1.8C42.1,166.3,41.5,163.3,41.5,158.3z M47.8,137.6c3.7-1.9,6.5-4.4,8.4-7.7c1.9-3.3,2.9-6.9,2.9-10.9
		c0-4.2-1.2-7.5-3.7-10c-2.5-2.4-5.7-3.7-9.8-3.7c-7.4,0-14.2,3.9-20.3,11.8c-6.1,7.8-9.2,17.2-9.2,28.1c0,6,1.1,10.8,3.2,14.4
		c2.2,3.6,4.9,5.5,8.3,5.5c1,0,2-0.2,3.1-0.5c1-0.3,2-0.8,3-1.4c1-0.6,1.9-1.4,2.9-2.3c0.9-0.9,2-2.3,3.1-4c1.2-1.8,1.7-2.9,1.7-3.4
		v-10.7c-1.1,0.1-2.1,0.2-2.9,0.2c-3.4,0-6.2-1-8.2-3.1c-2-2-3.1-4.7-3.1-8.1c0-3.3,1-6.5,3-9.6c2-3.1,4.8-5.5,8.3-7.2l0.7,1.1
		c-5,4.2-7.5,8.8-7.5,13.8c0,3,0.8,5.3,2.4,7.1c1.6,1.8,3.8,2.7,6.5,2.7h0.7v-20l6.3-3.4V137.6z"/>
	<path d="M98,160.4c-4,5.9-7.8,8.8-11.4,8.8c-1.2,0-2.2-0.4-2.8-1.2c-0.6-0.8-1-2.6-1-5.3v-4.2c-3.6,5.3-6.1,8.4-7.5,9.5
		c-1.5,1.1-2.8,1.6-4.1,1.6c-1.4,0-2.4-0.5-3.2-1.4c-0.7-0.9-1.1-3.1-1.1-6.5v-8.1c-1.4,3.2-2.9,5.7-4.4,7.5l-1.6-1.1
		c2.9-4.2,4.9-8.5,6-12.8l5-2.5v18c0,1.3,0.1,2.2,0.2,2.6c0.1,0.4,0.6,0.7,1.2,0.7c0.7,0,1.7-0.6,2.9-1.7c1.2-1.1,2.6-2.9,4.2-5.4
		c1.6-2.5,2.5-3.8,2.5-4.1v-7.5l5-2.5v15.5c0,2.1,0.1,3.5,0.2,4.2c0.1,0.7,0.6,1.1,1.3,1.1c1.6,0,4-2.2,7.2-6.5L98,160.4z"/>
	<path d="M106.9,128.6c0-2,0.6-3.6,1.8-4.8c1.2-1.2,2.7-1.7,4.6-1.7c4.1,0,7.7,2.1,10.9,6.2c3.2,4.1,4.7,9.4,4.7,15.9
		c0,7.1-1.7,13-5.1,17.9c-3.4,4.8-7.3,7.2-11.7,7.2c-2.4,0-4.4-0.8-6-2.3c-1.5-1.5-2.3-3.3-2.3-5.4v-1.7c0-0.9,0-1.5,0.1-1.8
		l-2.3,3.3l-1.6-1.1c6.5-10.1,12.7-15.1,18.4-15.1c3.1,0,5.4,1.3,7.1,3.9c0.2-1.5,0.3-2.8,0.3-4.2c0-4.4-1.4-8.5-4.1-12.1
		c-2.7-3.6-5.9-5.5-9.6-5.5C110.2,127.1,108.5,127.6,106.9,128.6z M114.7,165.6c2.5,0,4.8-1.3,6.8-3.8c2-2.5,3.1-5.3,3.1-8.3
		c0-2-0.6-3.6-1.7-4.7c-1.1-1.1-2.7-1.7-4.6-1.7c-2.5,0-4.8,1.2-6.8,3.5c-2,2.4-2.9,4.9-2.9,7.7c0,2.2,0.6,3.9,1.7,5.2
		C111.4,165,112.9,165.6,114.7,165.6z M132.9,160.4c-3.6,5.8-8.5,9-14.5,9.7L118,169c5.4-1.2,9.8-4.5,13.4-9.7L132.9,160.4z"/>
	<path d="M156,160.4c-1.9,2.8-3.8,5-5.8,6.6c-2,1.5-3.8,2.3-5.4,2.3c-1.8,0-2.9-0.5-3.4-1.4c-0.5-1-0.7-2.6-0.7-5.1v-9
		c-1,2.6-2.5,5.2-4.5,7.6l-1.5-1.2c3.1-4.3,5.1-8.4,6-12.4l5-2.6v15.7c0,2,0.1,3.2,0.3,3.9c0.2,0.6,0.6,0.9,1.4,0.9
		c1.5,0,3.9-2.2,7.2-6.5L156,160.4z M147.4,135.4l-3.5,4.4l-3.5-4.4l3.5-4.3L147.4,135.4z"/>
	<path d="M157.8,160.1c4.3-6.1,7.8-10.1,10.6-11.9c2.7-1.8,5.6-2.7,8.6-2.7c2.9,0,5.1,0.8,6.8,2.3c1.6,1.5,2.5,3.6,2.5,6.4
		c0,3.9-1.6,7.4-4.7,10.6c-3.1,3.2-6.7,4.8-10.9,4.8c-2.7,0-4.8-0.8-6.4-2.4c-1.6-1.6-2.4-3.7-2.4-6.1c0-1.3,0.1-2.5,0.3-3.6
		c-0.5,0.6-1.4,1.9-2.7,3.9L157.8,160.1z M174,166.3c2.5,0,4.5-0.9,6-2.7c1.5-1.8,2.2-4.2,2.2-7.3c0-2.6-0.7-4.7-2.1-6.1
		c-1.4-1.5-3.2-2.2-5.5-2.2c-2.4,0-4.3,0.9-5.8,2.6c-1.4,1.8-2.2,4.2-2.2,7.3C166.7,163.6,169.1,166.3,174,166.3z M191.9,160.4
		c-2.6,3.8-5.1,6.3-7.5,7.5s-4.7,1.9-7.1,2.2l-0.4-1.1c5.5-1.2,9.9-4.5,13.3-9.7L191.9,160.4z"/>
	<path d="M211.1,157.6h-14.5v-3.7h14.5V157.6z"/>
	<path d="M255.8,159.5c-3.7,5.9-7.1,9.1-10.1,9.4v15.7c0,4.2-1.3,7.6-4,10.2c-2.6,2.6-5.9,3.9-9.7,3.9c-2.6,0-4.9-0.6-7.1-1.8
		c-2.2-1.2-3.5-2.6-4-4.3l4.2-4l0.7,0.7c-0.1,0.4-0.2,0.9-0.2,1.3c0,1.7,0.7,3.2,2,4.5c1.3,1.3,3,1.9,4.9,1.9c2.6,0,4.6-1,6.1-3
		c1.5-2,2.2-4.8,2.2-8.4v-22.3c-3.2,4.1-6.7,6.1-10.4,6.1c-2.7,0-5-1-6.7-3c-1.7-2-2.6-4.2-2.6-6.7v-2l-2.4,3.5l-1.6-1.1
		c4-5.6,7.2-9.5,9.7-11.5s5-3.1,7.5-3.1c2.7,0,4.9,0.8,6.5,2.3l5-3V166c2.3-0.2,5.2-2.8,8.6-7.7L255.8,159.5z M240.8,160v-9.4
		c-1.5-2.4-3.6-3.5-6.1-3.5c-2.4,0-4.4,1-6,2.9c-1.6,1.9-2.4,4.3-2.4,7c0,2.6,0.6,4.6,1.8,6.1c1.2,1.5,2.8,2.2,4.9,2.2
		c2.3,0,4.1-0.8,5.6-2.3C240,161.6,240.8,160.6,240.8,160z"/>
	<path d="M264,128.6c0-2,0.6-3.6,1.8-4.8c1.2-1.2,2.7-1.7,4.6-1.7c4.1,0,7.7,2.1,10.9,6.2c3.2,4.1,4.7,9.4,4.7,15.9
		c0,7.1-1.7,13-5.1,17.9c-3.4,4.8-7.3,7.2-11.7,7.2c-2.5,0-4.4-0.8-6-2.3c-1.5-1.5-2.3-3.3-2.3-5.4v-1.7c0-0.9,0-1.5,0.1-1.8
		l-2.3,3.3l-1.6-1.1c6.5-10.1,12.7-15.1,18.4-15.1c3.1,0,5.4,1.3,7.1,3.9c0.2-1.5,0.3-2.8,0.3-4.2c0-4.4-1.4-8.5-4.1-12.1
		c-2.7-3.6-5.9-5.5-9.6-5.5C267.3,127.1,265.6,127.6,264,128.6z M271.8,165.6c2.5,0,4.8-1.3,6.8-3.8c2-2.5,3.1-5.3,3.1-8.3
		c0-2-0.6-3.6-1.7-4.7c-1.1-1.1-2.7-1.7-4.6-1.7c-2.5,0-4.8,1.2-6.8,3.5c-2,2.4-2.9,4.9-2.9,7.7c0,2.2,0.6,3.9,1.7,5.2
		C268.5,165,270,165.6,271.8,165.6z M290,160.4c-3.6,5.8-8.5,9-14.5,9.7l-0.4-1.1c5.4-1.2,9.8-4.5,13.4-9.7L290,160.4z"/>
</g>
</svg>
