<?xml version="1.0" encoding="utf-8"?>
<!-- Generator: Adobe Illustrator 18.0.0, SVG Export Plug-In . SVG Version: 6.00 Build 0)  -->
<!DOCTYPE svg PUBLIC "-//W3C//DTD SVG 1.1//EN" "http://www.w3.org/Graphics/SVG/1.1/DTD/svg11.dtd" [
	<!ENTITY ns_flows "http://ns.adobe.com/Flows/1.0/">
	<!ENTITY ns_extend "http://ns.adobe.com/Extensibility/1.0/">
	<!ENTITY ns_ai "http://ns.adobe.com/AdobeIllustrator/10.0/">
	<!ENTITY ns_graphs "http://ns.adobe.com/Graphs/1.0/">
	<!ENTITY ns_vars "http://ns.adobe.com/Variables/1.0/">
	<!ENTITY ns_imrep "http://ns.adobe.com/ImageReplacement/1.0/">
	<!ENTITY ns_sfw "http://ns.adobe.com/SaveForWeb/1.0/">
	<!ENTITY ns_custom "http://ns.adobe.com/GenericCustomNamespace/1.0/">
	<!ENTITY ns_adobe_xpath "http://ns.adobe.com/XPath/1.0/">
]>
<svg version="1.1" id="Layer_1" xmlns:x="&ns_extend;" xmlns:i="&ns_ai;" xmlns:graph="&ns_graphs;"
	 xmlns="http://www.w3.org/2000/svg" xmlns:xlink="http://www.w3.org/1999/xlink" xmlns:a="http://ns.adobe.com/AdobeSVGViewerExtensions/3.0/"
	 x="0px" y="0px" viewBox="0 0 300 300" enable-background="new 0 0 300 300" xml:space="preserve">
<metadata>
	<sfw  xmlns="&ns_sfw;">
		<slices></slices>
		<sliceSourceBounds  width="205.6" height="250" bottomLeftOrigin="true" x="45.3" y="27.7"></sliceSourceBounds>
	</sfw>
</metadata>
<g>
	<g>
		<path fill="#CC3333" d="M80.8,22.3l-35.5,83.1l11.1-4.4l41.8-16.6l8.7,21.1h10L80.8,22.3z M61.1,89.7L81,43l13.8,33.6L61.1,89.7z"
			/>
	</g>
	<g>
		<rect x="226.3" y="24.5" fill="#CC3333" width="8.6" height="79.2"/>
	</g>
	<g>
		<rect x="242.3" y="24.3" fill="#CC3333" width="8.6" height="79.2"/>
	</g>
	<g>
		<polygon fill="#CC3333" points="172.1,54.9 164.7,54.9 164.7,40 156.2,40 156.2,54.9 148.8,54.9 148.8,63.3 156.2,63.3 
			156.2,103.7 164.7,103.7 164.7,63.3 172.1,63.3 		"/>
	</g>
	<g>
		<path fill="#CC3333" d="M182.3,81.6c0.2,2.1,0.8,4.1,1.7,6s2,3.5,3.4,4.8c1.3,1.3,2.9,2.4,4.6,3.2c1.7,0.8,3.6,1.2,5.6,1.2
			c3,0,5.8-0.7,8.2-2.2c2.5-1.5,4.4-3.5,6-5.9l6.9,4.5c-2.2,3.6-5.2,6.5-8.9,8.6c-3.7,2.1-7.7,3.3-12.3,3.3c-3.1,0-6-0.6-8.7-1.8
			c-2.7-1.2-5.2-2.9-7.2-4.9c-2.1-2.1-3.9-4.6-5.2-7.5c-1.3-2.9-2.1-6-2.4-9.3c0-0.3,0-0.7-0.1-1.1c0-0.4-0.1-0.8-0.1-1.2
			c0-2.1,0.2-4.1,0.7-6c0.6-2.8,1.6-5.4,3-7.8c1.5-2.5,3.2-4.5,5.2-6.3c2-1.7,4.3-3.1,6.8-4.1c2.5-1,5.2-1.5,8-1.5
			c2.8,0,5.4,0.5,8,1.5c2.5,1,4.8,2.4,6.8,4.1c2,1.7,3.7,3.9,5.2,6.3c1.5,2.5,2.5,5,3,7.8c0.5,1.9,0.7,3.9,0.7,6c0,0.4,0,0.8,0,1.2
			c0,0.4,0,0.7-0.1,1.1L182.3,81.6L182.3,81.6z M212,73.3c-1.2-3.4-3-6.2-5.6-8.3c-2.6-2.1-5.6-3.2-9-3.2c-3.4,0-6.3,1.1-9,3.2
			c-2.6,2.1-4.4,4.9-5.6,8.3H212z"/>
	</g>
	<g>
		<path fill="#CC3333" d="M132.4,75c3,0.9,5.5,2,7.4,3.2c1.9,1.2,3.4,2.5,4.4,3.9c1.1,1.4,1.8,2.8,2.2,4.3c0.4,1.4,0.6,2.8,0.6,4.1
			c0,2-0.4,3.9-1.2,5.6c-0.8,1.7-1.9,3.2-3.3,4.5c-1.4,1.3-3,2.3-4.9,3.1c-1.9,0.7-3.9,1.2-6,1.2c-2,0-3.8-0.3-5.6-1
			c-1.7-0.7-3.3-1.6-4.6-2.7c-1.3-1.2-2.5-2.5-3.3-4c-0.9-1.6-1.4-3.2-1.6-5l4.9-1.2c0.6,2.1,1.7,3.9,3.5,5.3c1.8,1.5,4,2.2,6.7,2.2
			c1.3,0,2.5-0.2,3.8-0.7c1.2-0.4,2.2-1,3.1-1.7c0.9-0.7,1.6-1.6,2.1-2.5c0.5-1,0.7-2,0.7-3.1c0-4.3-3.5-7.4-10.3-9.4
			c-1.6-0.5-3.3-1-4.9-1.6c-1.6-0.6-3.2-1.4-4.5-2.4c-1.3-1-2.5-2.2-3.3-3.8c-0.8-1.6-1.3-3.5-1.3-5.8c0-2,0.3-3.9,1-5.5
			c0.7-1.7,1.6-3.1,2.9-4.4c1.2-1.2,2.7-2.1,4.5-2.9c1.7-0.7,3.7-1.1,5.8-1.1c1.9,0,3.6,0.3,5.3,1c1.6,0.7,3,1.6,4.3,2.6
			c1.2,1.2,2.2,2.5,3,4c0.7,1.6,1.2,3.2,1.5,5.1l-4.9,1.2c-0.4-2.2-1.4-4-3-5.5c-1.6-1.4-3.6-2.1-6.1-2.1c-2.7,0-4.8,0.7-6.3,2.1
			c-1.5,1.4-2.2,3.1-2.2,5.3c0,0.8,0.2,1.6,0.4,2.2c0.2,0.7,0.7,1.3,1.4,1.8c0.7,0.6,1.6,1.1,3,1.6C128.8,73.9,130.5,74.5,132.4,75z
			"/>
	</g>
</g>
<g>
	<g>
		<polygon fill="#CC3333" points="84.4,229.6 120.9,193 108.9,193 71,231 71,191.5 62.5,191.5 62.5,270.6 71,270.6 71,243 
			78.4,235.6 109.8,270.6 122,270.6 		"/>
	</g>
	<g>
		<path fill="#CC3333" d="M124.5,248.8c0.2,2.1,0.8,4.1,1.7,6c0.9,1.9,2,3.5,3.4,4.8c1.3,1.3,2.9,2.4,4.6,3.2
			c1.7,0.8,3.6,1.2,5.6,1.2c3,0,5.8-0.7,8.2-2.2c2.5-1.5,4.4-3.5,6-5.9l6.9,4.5c-2.2,3.6-5.2,6.5-8.9,8.6c-3.7,2.1-7.7,3.3-12.3,3.3
			c-3.1,0-6-0.6-8.7-1.8c-2.7-1.2-5.2-2.9-7.2-4.9c-2.1-2.1-3.9-4.6-5.2-7.5c-1.3-2.9-2.1-6-2.4-9.3c0-0.3,0-0.7-0.1-1.1
			c0-0.4-0.1-0.8-0.1-1.2c0-2.1,0.2-4.1,0.7-6c0.6-2.8,1.6-5.4,3-7.8c1.5-2.5,3.2-4.5,5.2-6.3c2-1.7,4.3-3.1,6.8-4.1s5.2-1.5,8-1.5
			s5.4,0.5,8,1.5c2.5,1,4.8,2.4,6.8,4.1c2,1.7,3.7,3.9,5.2,6.3c1.5,2.5,2.5,5,3,7.8c0.5,1.9,0.7,3.9,0.7,6c0,0.4,0,0.8,0,1.2
			c0,0.4,0,0.7-0.1,1.1L124.5,248.8L124.5,248.8z M154.2,240.5c-1.2-3.4-3-6.2-5.6-8.3s-5.6-3.2-9-3.2c-3.4,0-6.3,1.1-9,3.2
			c-2.6,2.1-4.4,4.9-5.6,8.3H154.2z"/>
	</g>
	<g>
		<g>
			<path fill="#CC3333" d="M176.7,270.9H168v-48.8h8.2v8.1h0.2c3.5-5.7,8-9.5,14.6-9.5c1.1,0,1.6,0.1,2.3,0.2v8.5h-3.3
				c-8.1,0-13.2,6-13.2,13.1L176.7,270.9L176.7,270.9z"/>
		</g>
	</g>
	<g>
		<g>
			<path fill="#CC3333" d="M237.3,270.6h-8v-29.9c0-8.5-2.4-12.7-10.1-12.7c-4.5,0-12.4,3-12.4,16.1v26.5h-8v-48.5h7.5v6.9h0.2
				c1.7-2.6,6.2-8.2,14.2-8.2c7.3,0,16.5,3,16.5,16.9L237.3,270.6L237.3,270.6z"/>
		</g>
	</g>
</g>
<g>
	<g>
		<path fill="#CC3333" d="M167.7,171.1h-5.8l-3.4-4c-2.5,2.8-5.3,4.8-10.6,4.8c-9.1,0-10.7-6.5-10.7-9.2c0-4.8,1.5-7.4,8.2-11.1
			c-2.6-3.2-3.8-4.8-3.8-7.8c0-4.1,3.1-7.9,8.7-7.9c5.7,0,8.2,3.7,8.2,7.3c0,4.9-3.8,7.5-6.5,9.2l6.7,7.7c0.8-2.2,1-2.9,1.5-5.5h4.2
			c-0.2,2.4-1.1,5.6-2.9,9L167.7,171.1z M147.9,154.4c-3.9,2.4-6.2,4-6.2,7.8c0,4.4,4.5,5.8,6.5,5.8c3.2,0,6-1.4,7.9-3.9
			L147.9,154.4z M154.1,143.5c0-3.2-2.5-3.9-3.9-3.9c-3.8,0-4.3,2.6-4.3,3.8c0,2.3,2.2,4.8,3.6,6.1
			C151.4,148.3,154.1,146.5,154.1,143.5z"/>
	</g>
</g>
</svg>
