<?xml version="1.0" encoding="UTF-8"?> <!-- Generator: Adobe Illustrator 23.0.3, SVG Export Plug-In . SVG Version: 6.00 Build 0) --> <svg xmlns="http://www.w3.org/2000/svg" xmlns:xlink="http://www.w3.org/1999/xlink" id="Layer_1" x="0px" y="0px" viewBox="0 0 300 300" style="enable-background:new 0 0 300 300;" xml:space="preserve"> <g> <g> <path d="M160.59,133.37c0-11.65,0-23.3,0-34.95c0-0.84-0.11-0.72,0.73-0.72c19.32,0,38.63,0,57.95,0c0.83,0,0.71-0.1,0.71,0.7 c0,5.36,0,10.72,0,16.07c0,0.65,0.06,0.59-0.58,0.59c-13.83,0-27.66,0-41.49,0c-0.82,0-0.7-0.11-0.7,0.7c-0.01,3.13,0,6.26,0,9.39 c0,0.08,0,0.16,0,0.24c0,0.46,0,0.47,0.47,0.47c3.54,0,7.08,0,10.62,0c9.52,0,19.03,0,28.55,0c0.79,0,0.68-0.07,0.68,0.69 c0,4.57,0,9.14,0,13.7c0,0.71,0.08,0.62-0.64,0.62c-13.01,0-26.02,0-39.03,0c-0.74,0-0.65-0.1-0.65,0.66c0,3.19,0,6.39,0,9.58 c0,0.11,0.01,0.22,0,0.33c-0.02,0.22,0.07,0.33,0.3,0.31c0.16-0.01,0.32,0,0.47,0c13.97,0,27.95,0,41.92,0 c0.77,0,0.77,0,0.77,0.79c0,5.26,0,10.53,0,15.79c0,0.09,0,0.19,0,0.28c-0.01,0.41-0.01,0.41-0.42,0.42c-0.09,0-0.19,0-0.28,0 c-19.55,0-39.1,0-58.66,0c-0.78,0-0.7,0.12-0.7-0.71C160.59,156.67,160.59,145.02,160.59,133.37z"></path> <path d="M155.11,169.01c-0.19,0.01-0.33,0.02-0.46,0.02c-5.77,0-11.54,0-17.31,0.01c-0.35,0-0.52-0.11-0.66-0.44 c-1.6-3.66-3.22-7.31-4.82-10.98c-0.16-0.36-0.35-0.47-0.74-0.47c-10.7,0.01-21.4,0.01-32.1,0c-0.38,0-0.58,0.11-0.74,0.47 c-1.62,3.65-3.26,7.3-4.88,10.95c-0.15,0.34-0.31,0.46-0.69,0.46c-5.69-0.01-11.38-0.01-17.07-0.01c-0.16,0-0.31,0-0.54,0 c0.09-0.23,0.15-0.4,0.22-0.57c5.09-12.22,10.18-24.44,15.26-36.65c4.66-11.2,9.33-22.39,13.99-33.59 c0.02-0.04,0.04-0.09,0.05-0.13c0.07-0.29,0.24-0.41,0.55-0.38c0.27,0.02,0.54,0.01,0.81,0.01c6.39,0,12.77,0,19.16,0 c0.09,0,0.19,0,0.28,0c0.66,0.01,0.52-0.06,0.75,0.49c1.54,3.74,3.06,7.48,4.59,11.23c8.04,19.66,16.09,39.32,24.13,58.98 C154.95,168.59,155.02,168.78,155.11,169.01z M115.16,114.92c-0.03,0-0.07,0.01-0.1,0.01c-0.07,0.15-0.14,0.31-0.21,0.47 c-3.29,8.02-6.57,16.05-9.86,24.07c-0.04,0.1-0.09,0.2-0.12,0.31c-0.05,0.14,0,0.21,0.14,0.22c0.08,0,0.16,0,0.24,0 c6.65,0,13.31,0,19.96,0c0.12,0,0.24-0.02,0.41-0.04C122.12,131.57,118.64,123.25,115.16,114.92z"></path> </g> <g> <g> <path d="M26.7,94.88c0.18,0.05,0.36,0.1,0.54,0.14c1.8,0.47,3.09,2.06,3.17,3.92c0.01,0.25,0,0.51,0,0.76 c0,0.34-0.11,0.64-0.29,0.93c-3.25,5.13-5.37,10.71-6.65,16.63c-0.94,4.34-1.4,8.73-1.45,13.17c-0.1,9.13,1.41,17.99,4.47,26.59 c0.18,0.52,0.44,1.01,0.69,1.5c0.86,1.66,1.71,3.31,2.29,5.09c0.13,0.41,0.25,0.82,0.4,1.22c0.8,2.16-0.47,4.88-3,5.61 c-1.8,0.52-3.33,0.02-4.6-1.35c-0.42-0.46-0.74-0.98-1-1.55c-2.76-6.09-4.87-12.4-6.27-18.94c-0.61-2.88-1.08-5.77-1.39-8.7 c-0.27-2.52-0.42-5.04-0.43-7.57c-0.02-2.29,0.04-4.58,0.24-6.87c0.67-7.93,2.58-15.53,6.03-22.72c0.53-1.11,1.01-2.25,1.54-3.36 c0.44-0.93,0.94-1.83,1.58-2.63c0.66-0.82,1.46-1.44,2.49-1.73c0.16-0.05,0.32-0.1,0.49-0.15C25.94,94.88,26.32,94.88,26.7,94.88 z"></path> <path d="M29.92,132.21c0.01-6.98,1.02-14.17,3.34-21.16c0.56-1.69,1.2-3.36,1.89-5c0.82-1.95,1.73-3.86,2.62-5.78 c0.43-0.93,0.95-1.82,1.6-2.62c0.76-0.92,1.69-1.55,2.89-1.75c2.22-0.36,4.43,1.21,4.81,3.44c0.07,0.43,0.07,0.88,0.08,1.32 c0.01,0.34-0.11,0.65-0.29,0.94c-3.31,5.21-5.44,10.89-6.71,16.9c-1.09,5.12-1.52,10.31-1.39,15.54 c0.21,8.21,1.69,16.19,4.45,23.93c0.16,0.46,0.38,0.9,0.61,1.33c0.82,1.58,1.65,3.16,2.24,4.86c0.26,0.76,0.56,1.52,0.71,2.31 c0.4,2.01-0.87,4.13-2.86,4.85c-1.64,0.59-3.14,0.31-4.47-0.83c-0.61-0.52-1.06-1.17-1.39-1.9c-2.56-5.62-4.56-11.44-5.96-17.45 c-0.69-2.97-1.23-5.97-1.59-9C30.13,138.96,29.93,135.78,29.92,132.21z"></path> <path d="M59.64,172.12c-1.65-0.01-2.77-0.59-3.64-1.64c-0.36-0.43-0.67-0.93-0.9-1.44c-2.86-6.29-5.02-12.81-6.41-19.58 c-0.64-3.1-1.11-6.22-1.39-9.37c-0.31-3.45-0.4-6.91-0.24-10.37c0.2-4.43,0.79-8.8,1.82-13.12c1.02-4.24,2.45-8.33,4.32-12.26 c0.61-1.28,1.18-2.59,1.79-3.87c0.42-0.89,0.93-1.73,1.58-2.47c1-1.13,2.22-1.74,3.77-1.62c1.88,0.15,3.54,1.67,3.81,3.53 c0.06,0.39,0.07,0.79,0.07,1.18c0,0.39-0.12,0.73-0.33,1.07c-2.82,4.44-4.78,9.25-6.09,14.33c-0.87,3.37-1.43,6.79-1.73,10.26 c-0.3,3.42-0.35,6.85-0.15,10.28c0.44,7.36,1.87,14.52,4.36,21.47c0.16,0.44,0.37,0.87,0.59,1.29c0.83,1.6,1.67,3.19,2.26,4.9 c0.19,0.54,0.35,1.08,0.54,1.62c0.76,2.11-0.38,4.59-2.58,5.48C60.54,172.01,59.97,172.12,59.64,172.12z"></path> </g> <g> <path d="M276.7,94.88c0.18,0.05,0.36,0.11,0.54,0.16c0.93,0.26,1.71,0.78,2.29,1.53c0.5,0.65,0.99,1.32,1.35,2.05 c2.53,5.15,4.86,10.38,6.2,16c0.71,2.99,1.26,5.99,1.59,9.05c0.32,2.91,0.46,5.83,0.42,8.75c-0.03,2.69-0.2,5.37-0.51,8.04 c-1.07,9.39-3.66,18.35-7.52,26.95c-0.34,0.76-0.76,1.46-1.38,2.02c-1.29,1.17-2.78,1.53-4.44,0.96c-1.66-0.57-2.65-1.76-3-3.48 c-0.14-0.7-0.04-1.38,0.16-2.05c0.59-1.98,1.36-3.88,2.37-5.67c0.95-1.7,1.53-3.53,2.1-5.37c1.24-4.02,2.14-8.12,2.71-12.29 c0.43-3.15,0.66-6.32,0.69-9.5c0.06-6.31-0.67-12.52-2.42-18.59c-1.3-4.52-3.15-8.8-5.67-12.77c-0.2-0.32-0.29-0.65-0.31-1.03 c-0.06-1.27,0.25-2.41,1.13-3.36c0.64-0.69,1.42-1.14,2.36-1.3c0.07-0.01,0.14-0.06,0.21-0.08 C275.94,94.88,276.32,94.88,276.7,94.88z"></path> <path d="M272.35,132.58c-0.01,7.65-1.13,15.14-3.19,22.49c-1.28,4.59-2.92,9.04-4.88,13.38c-0.32,0.7-0.72,1.33-1.27,1.87 c-1.37,1.34-3.31,1.66-5.03,0.83c-1.7-0.82-2.71-2.6-2.52-4.45c0.03-0.3,0.12-0.59,0.2-0.87c0.53-1.76,1.16-3.48,2.07-5.08 c1.15-2.04,1.89-4.23,2.55-6.46c1.19-3.99,2.06-8.04,2.6-12.17c0.52-3.94,0.74-7.9,0.62-11.87c-0.22-7.13-1.43-14.07-4.06-20.72 c-1.05-2.67-2.31-5.23-3.86-7.64c-0.35-0.55-0.49-1.11-0.47-1.74c0.05-1.89,1.18-3.51,2.93-4.07c1.74-0.56,3.24-0.08,4.5,1.19 c0.36,0.37,0.67,0.8,0.96,1.23c0.27,0.4,0.53,0.83,0.74,1.27c1.56,3.35,3.19,6.67,4.4,10.17c1.37,3.95,2.35,7.99,2.95,12.13 C272.11,125.54,272.36,129.05,272.35,132.58z"></path> <path d="M255.29,131.53c-0.01,10.04-1.38,18.3-3.87,26.38c-1.16,3.78-2.57,7.46-4.2,11.06c-0.32,0.71-0.74,1.36-1.31,1.9 c-1.37,1.31-3.31,1.62-5,0.79c-1.67-0.81-2.69-2.58-2.52-4.41c0.03-0.33,0.13-0.65,0.22-0.97c0.59-2.01,1.4-3.93,2.42-5.75 c0.88-1.57,1.41-3.27,1.95-4.97c1.29-4.09,2.21-8.27,2.79-12.51c0.57-4.12,0.8-8.27,0.67-12.43c-0.19-6.14-1.15-12.16-3.11-18 c-1.24-3.67-2.85-7.16-4.92-10.43c-0.21-0.33-0.32-0.68-0.34-1.07c-0.07-1.38,0.3-2.6,1.31-3.57c1.63-1.57,4.13-1.6,5.83-0.04 c0.5,0.46,0.92,1.04,1.31,1.61c0.35,0.5,0.64,1.05,0.9,1.61c1.06,2.33,2.16,4.64,3.14,7c1.73,4.16,2.91,8.48,3.68,12.91 C254.95,124.77,255.3,128.92,255.29,131.53z"></path> </g> </g> <path d="M150.04,180.54c46.39,0,92.78,0,139.17,0c0.8,0,0.8,0,0.78,0.81c0,0.06-0.01,0.13,0,0.19c0.01,0.19-0.09,0.25-0.26,0.25 c-0.13,0-0.25,0-0.38,0c-92.89,0-185.78,0-278.68,0c-0.74,0-0.68,0.07-0.68-0.7c0-0.05,0-0.09,0-0.14c0.01-0.4,0.01-0.4,0.39-0.41 c0.16,0,0.32,0,0.47,0C57.26,180.54,103.65,180.54,150.04,180.54z"></path> <g> <path d="M263.87,196.64c1.47,0,2.94,0,4.41,0c0.49,0,0.46-0.02,0.46,0.47c0,1.39,0,2.78,0,4.17c0,0.28-0.02,0.57-0.06,0.85 c-0.16,1.11-0.8,1.86-1.82,2.3c-0.78,0.33-1.6,0.5-2.44,0.55c-1.06,0.07-2.11,0.11-3.17,0.12c-1.61,0.02-3.22,0.01-4.84,0 c-0.93,0-1.86-0.07-2.77-0.3c-1.8-0.45-2.95-1.73-3.21-3.56c-0.06-0.42-0.09-0.85-0.1-1.27c-0.01-1.42,0-2.84-0.01-4.27 c0-0.78,0.08-1.55,0.3-2.29c0.36-1.2,1.12-2.03,2.29-2.48c0.91-0.35,1.86-0.52,2.83-0.53c2.75-0.03,5.5-0.02,8.25,0.01 c0.61,0.01,1.23,0.1,1.83,0.24c1.62,0.37,2.47,1.3,2.7,2.95c0.08,0.58,0.08,1.16,0.09,1.75c0.01,0.35-0.01,0.36-0.33,0.36 c-1.26,0.01-2.53,0-3.79,0.01c-0.22,0-0.29-0.07-0.32-0.29c-0.11-0.84-0.45-1.21-1.28-1.33c-0.59-0.09-1.19-0.11-1.79-0.11 c-1.26-0.01-2.53,0-3.79,0.02c-0.31,0-0.63,0.05-0.94,0.11c-0.89,0.18-1.34,0.66-1.47,1.56c-0.02,0.14-0.04,0.28-0.04,0.42 c0,1.12-0.05,2.24,0.03,3.36c0.08,1.21,0.68,1.77,1.88,1.94c0.37,0.05,0.75,0.09,1.13,0.09c1.23,0.01,2.46,0.01,3.7,0 c0.6-0.01,1.2-0.06,1.77-0.28c0.62-0.24,0.88-0.67,0.84-1.33c-0.01-0.24-0.1-0.35-0.34-0.33c-0.13,0.01-0.25,0-0.38,0 c-1.36,0-2.72,0-4.08,0c-0.39,0-0.4-0.01-0.4-0.39c0-0.7,0-1.39,0-2.09c0-0.42,0.01-0.42,0.42-0.42 C260.9,196.64,262.38,196.64,263.87,196.64z"></path> <path d="M62.39,205.09c-1.34,0-2.69,0.03-4.03-0.01c-0.83-0.03-1.67-0.12-2.49-0.29c-1.83-0.39-2.87-1.57-3.09-3.43 c-0.06-0.45-0.09-0.91-0.1-1.37c-0.01-1.44-0.01-2.87,0-4.31c0-0.79,0.07-1.58,0.27-2.34c0.36-1.33,1.21-2.18,2.53-2.58 c0.81-0.24,1.64-0.36,2.48-0.36c2.95-0.02,5.91-0.03,8.86,0.01c0.74,0.01,1.48,0.13,2.2,0.28c1.63,0.34,2.58,1.38,2.9,3 c0.11,0.55,0.18,1.13,0.18,1.69c0.02,1.61,0.03,3.22,0,4.83c-0.01,0.63-0.11,1.26-0.26,1.87c-0.33,1.38-1.21,2.25-2.57,2.64 c-0.93,0.27-1.9,0.35-2.86,0.37C65.07,205.12,63.73,205.09,62.39,205.09z M62.44,193.99c0-0.01,0-0.02,0-0.03 c-0.41,0-0.82-0.01-1.23,0c-0.72,0.03-1.46,0.03-2.17,0.13c-1.14,0.16-1.7,0.71-1.82,1.85c-0.09,0.83-0.06,1.67-0.07,2.51 c0,0.38,0.02,0.76,0.07,1.13c0.11,0.92,0.65,1.49,1.54,1.69c0.47,0.11,0.97,0.18,1.45,0.19c1.47,0.02,2.94,0.02,4.41,0 c0.47-0.01,0.94-0.08,1.41-0.18c0.9-0.19,1.46-0.75,1.56-1.67c0.14-1.26,0.12-2.52,0.01-3.78c-0.01-0.06-0.02-0.13-0.03-0.19 c-0.16-0.7-0.56-1.21-1.26-1.4c-0.47-0.13-0.96-0.22-1.44-0.25C64.05,193.96,63.25,193.99,62.44,193.99z"></path> <path d="M104.18,190.39c1.52,0,3.03-0.02,4.55,0.01c0.48,0.01,0.98,0.09,1.45,0.21c1.47,0.37,2.29,1.33,2.43,2.85 c0.04,0.41,0.03,0.82,0.02,1.23c-0.01,0.33-0.02,0.34-0.36,0.34c-1.19,0-2.37,0-3.56,0c-0.02,0-0.03,0-0.05,0 c-0.19,0.02-0.29-0.05-0.3-0.26c-0.03-0.73-0.44-1.22-1.38-1.23c-1.85-0.01-3.7-0.01-5.55,0c-0.28,0-0.57,0.04-0.85,0.1 c-0.52,0.11-0.76,0.41-0.78,0.93c-0.03,0.63,0.17,0.97,0.71,1.13c0.22,0.07,0.46,0.11,0.7,0.11c1.37,0.05,2.75,0.08,4.12,0.12 c1.42,0.04,2.84,0.08,4.26,0.15c0.39,0.02,0.78,0.1,1.16,0.21c1.18,0.32,1.93,1.09,2.23,2.28c0.29,1.13,0.28,2.28,0.14,3.44 c-0.2,1.62-1.38,2.66-2.9,2.88c-0.81,0.12-1.63,0.2-2.45,0.21c-2.35,0.03-4.71,0.02-7.06,0.01c-1,0-1.99-0.08-2.96-0.31 c-0.31-0.07-0.61-0.17-0.89-0.3c-0.72-0.32-1.18-0.88-1.41-1.63c-0.24-0.8-0.21-1.62-0.16-2.45c0.01-0.19,0.08-0.28,0.29-0.28 c1.26,0.01,2.53,0.01,3.79,0c0.21,0,0.27,0.09,0.27,0.28c0.03,1.1,0.52,1.24,1.36,1.33c0.19,0.02,0.38,0.02,0.57,0.02 c1.86,0,3.73,0,5.59,0c0.27,0,0.54-0.03,0.8-0.09c0.51-0.12,0.74-0.45,0.76-1.01c0.02-0.6-0.17-0.97-0.65-1.13 c-0.25-0.09-0.52-0.14-0.79-0.15c-1.63-0.07-3.25-0.12-4.88-0.18c-1.34-0.05-2.68-0.11-4.02-0.19c-0.37-0.02-0.75-0.13-1.11-0.24 c-0.9-0.28-1.47-0.89-1.73-1.8c-0.24-0.85-0.29-1.71-0.23-2.58c0.04-0.53,0.1-1.07,0.24-1.59c0.26-1.02,0.94-1.69,1.93-2.05 c0.69-0.25,1.41-0.35,2.14-0.36C101.14,190.38,102.66,190.39,104.18,190.39C104.18,190.39,104.18,190.39,104.18,190.39z"></path> <path d="M193.99,194.64c0,0.17,0,0.34,0,0.51c0,3.02,0,6.04,0,9.06c0,0.11,0,0.22,0,0.33c-0.01,0.35-0.01,0.36-0.38,0.36 c-1.22,0-2.43,0-3.65,0c-0.34,0-0.34-0.01-0.35-0.34c-0.01-0.17,0-0.35,0-0.52c0-4.25,0-8.5,0-12.76c0-0.13,0-0.25,0-0.38 c0.01-0.36,0.01-0.36,0.38-0.37c1.93,0,3.86,0,5.78-0.01c0.27,0,0.43,0.11,0.59,0.31c1.65,2.04,3.3,4.08,4.96,6.11 c1,1.23,1.99,2.45,2.99,3.68c0.08,0.1,0.18,0.2,0.36,0.39c0-0.28,0-0.45,0-0.62c0-3.03,0-6.07,0-9.1c0-0.11,0-0.22,0-0.33 c0.01-0.41,0.01-0.42,0.43-0.42c1.15,0,2.31,0,3.46,0c0.48,0,0.48,0,0.48,0.51c0,4.14,0,8.28,0,12.42c0,0.35,0,0.7,0,1.04 c-0.01,0.38-0.01,0.39-0.4,0.39c-1.64,0-3.29,0-4.93,0c-0.36,0-0.77,0.09-1.07-0.05c-0.3-0.14-0.5-0.51-0.73-0.79 c-2.5-3.04-5.01-6.07-7.51-9.11c-0.1-0.12-0.2-0.23-0.31-0.35C194.06,194.62,194.03,194.63,193.99,194.64z"></path> <path d="M245.56,199.25c0.26,0.11,0.49,0.19,0.7,0.29c0.89,0.43,1.37,1.17,1.41,2.14c0.04,0.98,0.01,1.96,0.01,2.94 c0,0.19-0.05,0.29-0.26,0.29c-1.28-0.01-2.56-0.01-3.84,0c-0.25,0-0.28-0.12-0.28-0.32c0.01-0.55,0-1.11,0-1.66 c0-0.19-0.01-0.38-0.03-0.57c-0.09-0.67-0.39-0.98-1.07-1.06c-0.33-0.04-0.66-0.06-0.99-0.06c-1.98-0.01-3.95,0-5.93,0 c-0.05,0-0.09,0-0.14,0c-0.35,0.01-0.36,0.01-0.36,0.39c0,0.96,0,1.93,0,2.89c0,0.39-0.01,0.39-0.39,0.39c-1.22,0-2.43,0-3.65,0 c-0.38,0-0.38-0.01-0.38-0.4c0-4.52,0-9.04,0-13.56c0-0.38,0.01-0.39,0.4-0.39c4.16,0.01,8.31,0.01,12.47,0.04 c0.67,0.01,1.35,0.14,2.01,0.3c1.31,0.33,2.13,1.19,2.4,2.53c0.24,1.19,0.25,2.39,0.01,3.58c-0.21,1.06-0.8,1.8-1.86,2.14 C245.72,199.15,245.67,199.19,245.56,199.25z M238.52,197.64c1,0,1.99,0,2.99,0c0.24,0,0.48-0.01,0.71-0.04 c0.52-0.07,0.89-0.36,0.99-0.88c0.07-0.37,0.1-0.75,0.1-1.13c-0.01-0.92-0.42-1.36-1.33-1.46c-0.08-0.01-0.16-0.01-0.24-0.01 c-2.2,0-4.39,0-6.59,0c-0.38,0-0.38,0.01-0.38,0.41c0,0.89,0,1.77,0,2.66c0,0.44,0,0.45,0.44,0.45 C236.31,197.64,237.42,197.64,238.52,197.64z"></path> <path d="M179.1,204.91c-2.45,0-4.9,0-7.35,0c-0.11,0-0.22-0.01-0.33,0c-0.18,0.01-0.27-0.06-0.26-0.25c0.01-0.09,0-0.19,0-0.28 c0-4.42,0-8.85,0-13.27c0-0.06,0-0.13,0-0.19c0.01-0.35,0.01-0.36,0.38-0.36c0.92-0.01,1.83,0,2.75,0c4,0,8,0,11.99,0 c0.68,0,0.59-0.03,0.59,0.58c0,0.85,0,1.71,0,2.56c0,0.34-0.01,0.35-0.34,0.35c-0.52,0.01-1.04,0-1.56,0c-2.91,0-5.81,0-8.72,0 c-0.14,0-0.28,0.01-0.43,0c-0.18-0.01-0.25,0.09-0.25,0.26c0,0.55,0.01,1.11,0,1.66c0,0.19,0.09,0.25,0.26,0.25 c0.14,0,0.28,0,0.43,0c3.13,0,6.26,0,9.39,0c0.65,0,0.57-0.02,0.57,0.55c0,0.68,0,1.36,0,2.04c0,0.43-0.01,0.43-0.45,0.43 c-1.75,0-3.51,0-5.26,0c-1.44,0-2.88,0-4.31,0c-0.11,0-0.22,0.01-0.33,0c-0.19-0.01-0.29,0.06-0.29,0.27 c0.01,0.55,0.01,1.11,0,1.66c0,0.18,0.07,0.26,0.25,0.26c0.14,0,0.28,0,0.43,0c3.41,0,6.83,0,10.24,0c0.66,0,0.57,0,0.57,0.56 c0,0.79,0,1.58,0,2.37c0,0.6,0.06,0.55-0.57,0.55C184.03,204.91,181.56,204.91,179.1,204.91z"></path> <path d="M219.84,204.91c-2.45,0-4.9,0-7.35,0c-0.13,0-0.25,0-0.38,0c-0.18,0.01-0.26-0.07-0.25-0.25c0.01-0.11,0-0.22,0-0.33 c0-4.39,0-8.79,0-13.18c0-0.62-0.07-0.6,0.58-0.6c4.85,0,9.7,0,14.56,0c0.64,0,0.56-0.01,0.57,0.56c0,0.82,0,1.64,0,2.47 c0,0.47,0,0.47-0.46,0.47c-1.49,0-2.97,0-4.46,0c-1.91,0-3.82,0-5.74,0c-0.13,0-0.25,0.01-0.38,0c-0.21-0.01-0.27,0.1-0.27,0.29 c0.01,0.52,0.01,1.04,0,1.56c-0.01,0.26,0.11,0.33,0.34,0.32c0.13-0.01,0.25,0,0.38,0c3.08,0,6.16,0,9.25,0 c0.13,0,0.25,0.01,0.38,0c0.22-0.01,0.31,0.06,0.31,0.3c-0.01,0.81-0.01,1.61,0,2.42c0,0.22-0.06,0.33-0.29,0.31 c-0.13-0.01-0.25,0-0.38,0c-3.11,0-6.23,0-9.34,0c-0.13,0-0.25,0.01-0.38,0c-0.18-0.01-0.26,0.07-0.26,0.25c0,0.57,0,1.14,0,1.71 c0,0.16,0.07,0.23,0.23,0.23c0.14,0,0.28,0,0.43,0c3.41,0,6.83,0,10.24,0c0.69,0,0.58-0.01,0.58,0.59c0.01,0.82,0,1.64,0,2.47 c0,0.41-0.01,0.42-0.41,0.42c-1.56,0-3.13,0-4.69,0C221.71,204.91,220.78,204.91,219.84,204.91z"></path> <path d="M41.7,190.39c1.3,0,2.59-0.03,3.89,0.01c0.69,0.02,1.38,0.12,2.06,0.26c1.53,0.31,2.39,1.3,2.63,2.8 c0.1,0.64,0.08,1.29,0.12,1.94c0.02,0.26-0.11,0.32-0.34,0.32c-1.26-0.01-2.53-0.01-3.79,0c-0.22,0-0.29-0.08-0.32-0.3 c-0.09-0.79-0.41-1.16-1.18-1.34c-0.27-0.06-0.56-0.1-0.84-0.1c-1.61-0.01-3.22-0.01-4.83,0.02c-0.39,0.01-0.78,0.09-1.17,0.17 c-0.65,0.15-1.04,0.57-1.19,1.21c-0.04,0.17-0.09,0.34-0.09,0.51c-0.01,1.17-0.01,2.34-0.01,3.51c0,0.17,0.05,0.34,0.09,0.51 c0.16,0.72,0.61,1.18,1.31,1.35c0.47,0.12,0.96,0.2,1.45,0.21c1.34,0.03,2.69,0.02,4.03,0c0.45-0.01,0.92-0.07,1.36-0.18 c0.77-0.18,1.11-0.61,1.19-1.4c0.01-0.08,0.02-0.16,0.02-0.24c0-0.22,0.1-0.3,0.32-0.3c1.28,0.01,2.56,0.01,3.84,0 c0.22,0,0.31,0.08,0.32,0.3c0.04,0.89,0.03,1.77-0.2,2.63c-0.32,1.15-1.05,1.92-2.17,2.32c-0.84,0.31-1.73,0.37-2.61,0.44 c-0.33,0.03-0.66,0.04-0.99,0.04c-2.15,0-4.3,0.03-6.45-0.01c-0.88-0.02-1.77-0.1-2.63-0.29c-1.94-0.43-3.13-1.84-3.31-3.83 c-0.05-0.53-0.08-1.07-0.08-1.61c0.01-1.56,0.03-3.13,0.08-4.69c0.01-0.44,0.13-0.88,0.25-1.3c0.34-1.19,1.1-2,2.25-2.45 c0.94-0.37,1.92-0.51,2.92-0.54C38.99,190.37,40.35,190.39,41.7,190.39z"></path> <path d="M150.24,190.39c1.28,0,2.56-0.02,3.84,0.01c0.63,0.01,1.26,0.09,1.88,0.2c1.66,0.3,2.57,1.2,2.86,2.85 c0.11,0.63,0.1,1.29,0.13,1.93c0.01,0.22-0.06,0.34-0.32,0.34c-1.26-0.01-2.53-0.01-3.79,0c-0.21,0-0.29-0.05-0.32-0.28 c-0.11-0.84-0.44-1.19-1.27-1.37c-0.23-0.05-0.47-0.09-0.7-0.09c-1.64,0-3.29-0.01-4.93,0.02c-0.39,0.01-0.78,0.09-1.17,0.18 c-0.62,0.15-1.02,0.57-1.15,1.19c-0.08,0.37-0.13,0.75-0.14,1.12c-0.02,0.82-0.01,1.64,0,2.47c0,0.27,0.04,0.54,0.08,0.8 c0.14,0.79,0.59,1.32,1.38,1.52c0.46,0.11,0.93,0.19,1.4,0.2c1.36,0.03,2.72,0.02,4.08,0c0.44-0.01,0.88-0.07,1.31-0.17 c0.78-0.18,1.14-0.63,1.22-1.43c0.01-0.08,0.01-0.16,0.01-0.24c-0.01-0.17,0.06-0.27,0.24-0.26c0.06,0,0.13,0,0.19,0 c1.2,0,2.4,0,3.6,0c0.41,0,0.41,0.01,0.43,0.42c0.05,0.84,0.03,1.67-0.19,2.49c-0.32,1.18-1.06,1.95-2.2,2.35 c-0.91,0.32-1.85,0.38-2.8,0.45c-0.54,0.04-1.07,0.03-1.61,0.03c-2.04,0-4.08,0.02-6.12-0.03c-0.75-0.02-1.52-0.11-2.25-0.3 c-1.81-0.46-2.85-1.66-3.15-3.5c-0.07-0.45-0.1-0.91-0.1-1.37c-0.01-1.42,0-2.84-0.01-4.27c0-0.76,0.08-1.51,0.3-2.25 c0.35-1.18,1.1-2.01,2.25-2.46c0.95-0.38,1.95-0.52,2.97-0.55C147.55,190.37,148.89,190.39,150.24,190.39z"></path> <path d="M92.62,196.08c0,1.61,0.01,3.22-0.01,4.84c-0.01,0.44-0.09,0.88-0.19,1.31c-0.27,1.1-0.96,1.86-2,2.3 c-1.01,0.42-2.08,0.55-3.15,0.57c-2.23,0.03-4.46,0.02-6.68-0.01c-0.98-0.01-1.96-0.12-2.91-0.37c-0.15-0.04-0.3-0.09-0.45-0.14 c-1.48-0.5-2.26-1.55-2.43-3.07c-0.05-0.42-0.07-0.85-0.07-1.28c-0.01-2.97,0-5.94,0-8.91c0-0.02,0-0.03,0-0.05 c0.01-0.79-0.1-0.72,0.7-0.72c0.66,0,1.33,0,1.99,0c0.43,0,0.85,0,1.28,0c0.43,0,0.44,0.01,0.44,0.46c0,2.67,0,5.34,0.01,8.01 c0,0.36,0.04,0.73,0.1,1.08c0.11,0.62,0.5,1.02,1.1,1.18c0.41,0.11,0.84,0.19,1.26,0.2c1.44,0.03,2.88,0.02,4.31,0 c0.37-0.01,0.75-0.09,1.12-0.18c0.62-0.16,1.01-0.6,1.13-1.22c0.08-0.42,0.11-0.85,0.11-1.27c0.01-2.56,0-5.12,0.01-7.68 c0-0.61-0.08-0.58,0.59-0.58c1.12,0,2.24,0,3.37,0c0.42,0,0.42,0.01,0.42,0.42c0,1.71,0,3.41,0,5.12 C92.63,196.08,92.63,196.08,92.62,196.08z"></path> <path d="M31.11,204.91c-1.17,0-2.26,0-3.35,0c-0.38,0-0.76-0.01-1.14,0c-0.24,0.01-0.37-0.08-0.49-0.28 c-0.34-0.61-0.7-1.2-1.03-1.81c-0.12-0.23-0.27-0.3-0.53-0.3c-2.69,0.01-5.37,0.01-8.06,0c-0.26,0-0.4,0.08-0.52,0.3 c-0.35,0.62-0.72,1.23-1.07,1.84c-0.1,0.17-0.21,0.24-0.41,0.24c-1.42-0.01-2.84,0-4.27-0.01c-0.06,0-0.11-0.02-0.21-0.04 c0.08-0.17,0.14-0.31,0.22-0.44c2.44-4.48,4.89-8.95,7.33-13.44c0.19-0.34,0.39-0.46,0.77-0.45c1.56,0.02,3.13,0.02,4.69,0 c0.29,0,0.45,0.09,0.59,0.35c2.43,4.55,4.88,9.1,7.32,13.66C30.99,204.64,31.03,204.74,31.11,204.91z M23.33,199.04 c-0.94-1.71-1.83-3.33-2.77-5.05c-0.92,1.72-1.81,3.35-2.7,5.05C19.71,199.04,21.47,199.04,23.33,199.04z"></path> <path d="M269.52,190.54c0.27,0,0.43,0,0.59,0c1.42,0,2.85,0.01,4.27-0.01c0.39-0.01,0.63,0.12,0.87,0.42 c1.29,1.58,2.59,3.15,3.89,4.72c0.06,0.07,0.12,0.15,0.18,0.22c0.29,0.35,0.29,0.35,0.58,0.02c0.4-0.47,0.81-0.93,1.21-1.4 c1.05-1.22,2.11-2.43,3.16-3.66c0.19-0.23,0.39-0.32,0.69-0.32c1.42,0.02,2.85,0.01,4.27,0.01c0.14,0,0.27,0.02,0.48,0.03 c-0.18,0.22-0.31,0.39-0.45,0.55c-2.38,2.77-4.77,5.53-7.16,8.29c-0.2,0.23-0.29,0.45-0.29,0.76c0.01,1.42,0.01,2.85,0.01,4.27 c0,0.46,0,0.46-0.47,0.46c-1.14,0-2.28,0-3.41,0c-0.49,0-0.5,0-0.5-0.48c0-1.39-0.01-2.78,0.01-4.17c0-0.34-0.09-0.59-0.32-0.85 c-2.42-2.8-4.83-5.6-7.24-8.41C269.78,190.88,269.69,190.76,269.52,190.54z"></path> <path d="M123,190.54c2.5,0,4.99,0,7.49,0c0.09,0,0.19,0,0.28,0c0.4,0.01,0.41,0.01,0.41,0.39c0,0.92,0,1.83,0,2.75 c0,0.38-0.01,0.39-0.41,0.39c-1.66,0-3.32,0-4.98,0c-0.11,0-0.22,0.01-0.33,0c-0.21-0.01-0.33,0.05-0.31,0.29 c0.01,0.13,0,0.25,0,0.38c0,3.16,0,6.32,0,9.48c0,0.11,0,0.22,0,0.33c-0.01,0.34-0.01,0.35-0.33,0.35c-1.23,0-2.46,0-3.7,0 c-0.34,0-0.35-0.01-0.35-0.39c0-2.09,0-4.17,0-6.26c0-1.25,0-2.5,0-3.74c0-0.44,0-0.45-0.44-0.45c-1.64,0-3.29,0-4.93,0 c-0.11,0-0.22-0.01-0.33,0c-0.22,0.02-0.31-0.08-0.31-0.3c0-0.98,0.01-1.96,0-2.94c0-0.23,0.11-0.29,0.32-0.29 c0.49,0.01,0.98,0,1.47,0C118.7,190.54,120.85,190.54,123,190.54z"></path> <path d="M137.67,197.74c0,2.18,0,4.36,0,6.54c0,0.13-0.01,0.25,0,0.38c0.01,0.19-0.08,0.25-0.25,0.25c-1.28,0-2.56,0-3.84,0 c-0.19,0-0.3-0.05-0.28-0.27c0.01-0.09,0-0.19,0-0.28c0-4.41,0-8.82,0-13.23c0-0.62-0.08-0.58,0.59-0.58c1.11,0,2.21,0,3.32,0 c0.47,0,0.47,0,0.47,0.46C137.67,193.25,137.67,195.49,137.67,197.74z"></path> </g> </g> </svg> 