<?xml version="1.0" encoding="UTF-8"?> <!-- Generator: Adobe Illustrator 23.0.3, SVG Export Plug-In . SVG Version: 6.00 Build 0) --> <svg xmlns="http://www.w3.org/2000/svg" xmlns:xlink="http://www.w3.org/1999/xlink" id="Layer_1" x="0px" y="0px" viewBox="0 0 1000 1000" style="enable-background:new 0 0 1000 1000;" xml:space="preserve"> <g> <g> <g> <path d="M460.42,604.19v31.78h-37.85v-31.78h-15.33v71.58h15.33V642.4h37.85l-0.02,25.67c0,1.61,0.34,2.94,0.98,3.97 c0.64,1,1.46,1.78,2.44,2.34c0.95,0.54,1.99,0.92,3.12,1.12c1.1,0.18,2.05,0.27,2.94,0.27h5.87v-71.58H460.42z"></path> <path d="M759.94,675.77v-71.57h-14.98l-29.99,53.01l-30.59-53.01h-15.17v71.57h7.82v-55.51l32.2,55.51h4l31.35-55.08v47.37 c0,1.62,0.35,2.95,1,3.97c0.64,0.99,1.46,1.78,2.43,2.35c0.96,0.54,2.01,0.92,3.12,1.11c1.09,0.19,2.05,0.29,2.95,0.29H759.94z"></path> <path d="M856.05,675.76l-38.31-73.16h-4.49l-39.24,73.16h8.95L795.15,653h27.83l-3.85-7.29h-20.07l12.9-24.06l25.3,48.43 c1.01,1.98,2.25,3.44,3.7,4.35c1.47,0.92,3.4,1.33,5.73,1.33H856.05z"></path> <path d="M935.76,604.18c-0.41,0-0.87,0.03-1.41,0.12c-0.55,0.1-1.07,0.29-1.55,0.55c-0.51,0.31-0.94,0.71-1.25,1.21 c-0.35,0.54-0.52,1.22-0.52,2.03v46.15l-51.01-50.07h-9.83v71.58h8.94v-53.97l51.75,52.19c2.11,1.93,5.03,1.79,7.87,1.79h1.07 v-71.59H935.76z"></path> <path d="M533.89,602.6h-4.48l-39.31,73.16h8.95l29.06-54.11l12.58,24.06h-20.18l-3.89,7.3h27.92l8.83,17.08 c1,1.98,2.25,3.44,3.7,4.35c1.47,0.92,3.4,1.32,5.72,1.32h9.43L533.89,602.6z"></path> <path d="M601.93,610.47v27.12h7.09c0,0,7.04,0.1,11.61-2.46c4.57-2.56,7.81-6.11,7.81-11.42c0-5.32-3.49-10.03-8.43-11.88 c0,0-2.82-1.35-7.86-1.35H601.93z M632.41,670.02l-22.6-26.98h-7.86v32.7h-15.32v-71.58h28.12c0,0,11.62-0.17,19.22,3.54 c7.6,3.71,10.82,8.92,10.82,15.54c0,6.61-4.07,14.42-18.6,18.35l29.27,34.15h-11.74c0,0-2.46,0.02-5.34-0.94 C635.52,673.87,632.41,670.02,632.41,670.02"></path> <path d="M348.92,671.39c1.9,0.7,3.57,0.98,5.24,0.98c5.59,0,9.59-3.86,9.59-9.21c0-4.94-3.1-8.47-7.39-8.47 c-2.68,0-4.87,1.2-7.44,4.05V671.39z M346.63,642.39h2.29v13.82c2.24-2.14,4.29-3.4,7.73-3.4c5.63,0,9.54,4.2,9.54,10.2 c0,7.03-4.72,11.54-11.97,11.54c-2.58,0-4.67-0.46-7.58-1.58V642.39z"></path> <polygon points="373.15,684.84 370.81,684.84 378.3,670.08 369.29,653.23 371.67,653.23 379.45,667.85 386.84,653.23 389.18,653.23 "></polygon> </g> </g> <g> <path d="M926.22,389.87l9.79-62.25c-28-5.76-69.16-11.42-105.27-12.31c-42.07-1.04-77.99,3.34-89,5.29 c-20.49,3.63-37.5,10.3-51.05,20.04c-13.55,9.74-23.64,23.1-30.26,40.08c-6.62,16.98-9.92,38.73-9.92,65.23 c0,26.5,3.3,48.12,9.92,64.87c6.62,16.77,16.65,29.9,30.09,39.41c13.44,9.51,30.42,16.03,50.89,19.53 c20.48,3.51,46.32,5.27,74.05,5.27c53.36,0,113.01-14.95,124.34-19.7v-115.4H824.97v46.79h49.92v20.34 c-6.47,1.62-33.25,6.06-59.35,6.77c-88.69,2.36-94.91-32.24-94.91-68.95c0-32.6,11.29-59.54,52.44-64.86 C814.22,374.69,866.16,377.6,926.22,389.87 M142.99,321.43h86.99l119.79,248.83h-74.35l-20.76-44.01H119.21l-19.55,44.01H25 L142.99,321.43z M142.99,321.43h86.99l119.79,248.83h-74.35l-20.76-44.01H119.21l-19.55,44.01H25L142.99,321.43z M142.99,321.43 h86.99l119.79,248.83h-74.35l-20.76-44.01H119.21l-19.55,44.01H25L142.99,321.43z M144.2,472.65h85.48l-43.35-93.48L144.2,472.65z M144.2,472.65h85.48l-43.35-93.48L144.2,472.65z M144.2,472.65h85.48l-43.35-93.48L144.2,472.65z M369.3,321.43h76.03v91.43h8.07 l95.89-91.43h103.39L518.45,443.1l149.99,127.16H562.95l-109.59-95.55h-8.04v95.55H369.3V321.43z"></path> <path d="M960.03,348.6c1.16,0,2.01-0.1,2.57-0.31c0.95-0.37,1.43-1.1,1.43-2.17c0-1.05-0.3-1.71-0.89-2.02 c-0.67-0.38-1.74-0.57-3.23-0.57h-2.1v5.07H960.03z M964.26,357.21l-0.08-0.23l-0.14-0.83v-1.29c0-1.67-0.46-2.78-1.34-3.33 c-0.62-0.32-1.62-0.49-2.97-0.49h-1.91v6.18h-3.21v-16.1h5.72c1.99,0,3.41,0.19,4.37,0.56c1.68,0.68,2.56,2.14,2.56,4.19 c0,1.49-0.55,2.61-1.64,3.31c-0.37,0.22-0.77,0.4-1.21,0.55c0.7,0.27,1.27,0.71,1.69,1.33c0.6,0.82,0.91,1.69,0.91,2.58v1.16 c0,0.36,0,0.69,0.06,1.11c0,0.43,0.08,0.66,0.11,0.7l0.17,0.61H964.26z M960.58,337.27c-3.29,0-6.11,1.17-8.39,3.51 c-2.37,2.36-3.52,5.13-3.52,8.45c0,3.35,1.13,6.13,3.46,8.48c2.38,2.37,5.15,3.52,8.45,3.52c3.34,0,6.2-1.18,8.5-3.52 c2.33-2.36,3.48-5.14,3.48-8.48c0-3.35-1.14-6.11-3.48-8.45C966.75,338.42,963.98,337.27,960.58,337.27 M960.58,363.69 c-3.93,0-7.35-1.42-10.18-4.22c-2.77-2.9-4.17-6.35-4.17-10.26c0-3.89,1.42-7.32,4.23-10.2c2.77-2.8,6.19-4.22,10.12-4.22 c3.96,0,7.4,1.42,10.24,4.22c2.76,2.81,4.17,6.24,4.17,10.2c0,4-1.37,7.36-4.16,10.25C967.99,362.27,964.54,363.69,960.58,363.69"></path> </g> </g> </svg> 