<?xml version="1.0" encoding="UTF-8"?> <!-- Generator: Adobe Illustrator 23.0.3, SVG Export Plug-In . SVG Version: 6.00 Build 0) --> <svg xmlns="http://www.w3.org/2000/svg" xmlns:xlink="http://www.w3.org/1999/xlink" id="Layer_1" x="0px" y="0px" viewBox="0 0 1000 1000" style="enable-background:new 0 0 1000 1000;" xml:space="preserve"> <style type="text/css"> .st0{fill:#783295;} .st1{fill:#FFFFFF;} </style> <g> <g> <polygon class="st0" points="637.5,813.36 377.29,813.36 377.29,587.54 200.55,587.54 200.55,975 814.24,975 814.24,587.54 637.5,587.54 "></polygon> <polygon class="st0" points="200.55,25 200.55,326.2 377.29,326.2 377.29,109.53 637.5,109.53 637.5,326.2 814.24,326.2 814.24,25 "></polygon> </g> <g> <path d="M107.26,495.83H65.23l-7.16,27.41H16.81L61.8,385.42h50.81l44.98,137.82h-43.17L107.26,495.83z M72.59,467.27H99.9 l-13.28-50.05h-0.76L72.59,467.27z"></path> <path d="M170.01,523.24V385.42h31.42l53.2,71.44h0.76v-71.44h38.2v137.82h-31.04l-53.58-72.59h-0.76v72.59H170.01z"></path> <path d="M396.46,495.83h-42.02l-7.16,27.41h-41.26L351,385.42h50.81l44.98,137.82h-43.17L396.46,495.83z M361.79,467.27h27.32 l-13.28-50.05h-0.76L361.79,467.27z"></path> <path d="M553.77,523.24h-94.55V385.42h40.5v105.63h54.06V523.24z"></path> <path d="M584.62,523.24v-43.65l-47.09-94.17h43.27l24.16,55.87h0.76l24.16-55.87h42.31l-47.08,94.17v43.65H584.62z"></path> <path d="M710.41,481.5c1.53,8.31,11.17,13.08,22.64,13.08c12.13,0,19.58-4.97,19.58-11.75c0-6.49-5.35-9.26-20.82-12.03 l-13.85-2.48c-27.41-4.87-42.41-18.72-42.41-40.11c0-27.7,23.88-45.18,56.64-45.18c36.87,0,57.5,17.1,57.69,44.32h-37.25 c-0.29-8.4-8.88-13.28-19.96-13.28c-11.27,0-17,4.97-17,11.17c0,6.21,5.92,9.17,19.68,11.65l13.85,2.48 c29.61,5.35,43.55,17.48,43.55,39.83c0,28.37-22.16,46.42-60.17,46.42c-35.72,0-59.31-15.95-59.41-44.13H710.41z"></path> <path d="M807.83,523.24V385.42h40.5v137.82H807.83z"></path> <path d="M900.86,481.5c1.53,8.31,11.17,13.08,22.64,13.08c12.13,0,19.58-4.97,19.58-11.75c0-6.49-5.35-9.26-20.82-12.03 l-13.85-2.48C880.99,463.45,866,449.6,866,428.21c0-27.7,23.88-45.18,56.64-45.18c36.87,0,57.5,17.1,57.69,44.32h-37.25 c-0.29-8.4-8.88-13.28-19.96-13.28c-11.27,0-17,4.97-17,11.17c0,6.21,5.92,9.17,19.68,11.65l13.85,2.48 c29.61,5.35,43.55,17.48,43.55,39.83c0,28.37-22.16,46.42-60.17,46.42c-35.72,0-59.31-15.95-59.41-44.13H900.86z"></path> </g> <g> <path class="st1" d="M342.06,828.96c27.76,0,46.89,18.47,46.89,46.32c0,27.76-19.79,46.32-48.29,46.32h-25.32v42.67h-28.32V828.96 H342.06z M315.33,899.48h19.13c16.22,0,25.69-8.63,25.69-24.1c0-15.38-9.38-24.01-25.6-24.01h-19.22V899.48z"></path> <path class="st1" d="M493.11,964.27h-87.49V828.96h28.32v111.87h59.17V964.27z"></path> <path class="st1" d="M533.99,913.63c0,17.35,10.22,28.69,28.41,28.69c18.1,0,28.32-11.35,28.32-28.69v-84.68h28.32v87.49 c0,29.82-22.04,50.07-56.64,50.07c-34.7,0-56.73-20.25-56.73-50.07v-87.49h28.32V913.63z"></path> <path class="st1" d="M663.11,925.64c1.78,11.35,13.22,18.1,28.6,18.1c15.1,0,25.41-7.31,25.41-17.25 c0-8.91-6.38-13.97-23.35-17.44l-14.25-2.81c-27.01-5.35-40.23-18.29-40.23-38.45c0-24.76,21.57-41.16,51.67-41.16 c31.6,0,51.48,16.5,51.95,41.35h-26.72c-0.94-11.53-10.97-18.47-25.22-18.47c-13.97,0-23.35,6.56-23.35,16.5 c0,8.35,6.56,13.5,22.5,16.69l14.35,2.91c28.6,5.72,41.07,17.25,41.07,37.79c0,26.44-20.72,43.13-54.58,43.13 c-32.26,0-53.73-15.38-54.57-40.88H663.11z"></path> </g> </g> </svg> 