<?xml version="1.0" encoding="UTF-8"?> <svg xmlns="http://www.w3.org/2000/svg" id="Layer_1" data-name="Layer 1" viewBox="0 0 566.93 566.93"><defs><style>.cls-1{fill:#231f20;}</style></defs><path class="cls-1" d="M145.44,254.42a5.7,5.7,0,0,0-5.75-5.91H127.4v12.18a5.84,5.84,0,0,0,5.92,5.88h12.1Z"></path><path class="cls-1" d="M172,266.57V251.09c0-16.88-11.15-29.08-30.25-29.08H127.43v21.37h12.28c4.63,0,10.69,3.54,10.69,10.56l0,12.63Z"></path><path class="cls-1" d="M207.43,253.63q-.09,4.42-2.5,6.1a9,9,0,0,1-5.26,1.67,4.73,4.73,0,0,1-3-1,3.92,3.92,0,0,1-1.26-3.26,4,4,0,0,1,2.08-3.75,13.12,13.12,0,0,1,4-1.2l2-.37a14.37,14.37,0,0,0,2.33-.61,9.48,9.48,0,0,0,1.68-.85Zm-8.3-7a21.2,21.2,0,0,0-7.69,2.15q-4.77,2.76-4.77,9a9.27,9.27,0,0,0,3,7.36,10.91,10.91,0,0,0,7.5,2.6,12.68,12.68,0,0,0,6.38-1.61,18.3,18.3,0,0,0,4.17-3.33c.06.74.14,1.4.24,2a9.59,9.59,0,0,0,.55,1.86H218v-1.3a3,3,0,0,1-1.28-1,4.72,4.72,0,0,1-.53-2.32q-.06-2.26-.06-3.87V242.78q0-6-4.26-8.16a21.57,21.57,0,0,0-9.74-2.12q-8.42,0-11.88,4.35a12.46,12.46,0,0,0-2.45,7.09h8.4a6.41,6.41,0,0,1,1.23-3c.87-1,2.34-1.52,4.42-1.52a9,9,0,0,1,4.21.78,3,3,0,0,1,1.44,2.85,2.62,2.62,0,0,1-1.87,2.49,13.86,13.86,0,0,1-3.48.77Z"></path><path class="cls-1" d="M230.55,233.22v20.06a10.66,10.66,0,0,0,.67,4.28q1.18,2.54,4.62,2.54c2.94,0,4.95-1.21,6-3.61a13.21,13.21,0,0,0,.85-5.16V233.22h8.83v33.39h-8.47v-4.78c-.08.11-.29.42-.61.93a6.1,6.1,0,0,1-1.16,1.36,12,12,0,0,1-3.94,2.54,13.26,13.26,0,0,1-4.45.68q-7.38,0-9.92-5.38c-1-2-1.43-4.84-1.43-8.65V233.22Z"></path><path class="cls-1" d="M272.33,260.46a6.09,6.09,0,0,1-5.48-2.79,15.88,15.88,0,0,1,0-14.65,6,6,0,0,1,5.57-2.91,6.54,6.54,0,0,1,4.38,1.6c2,1.76,3,4.7,3,8.8a12.35,12.35,0,0,1-1.91,7.18A6.36,6.36,0,0,1,272.33,260.46Zm-1.89-28A12.7,12.7,0,0,0,260,237.4q-3.92,4.89-3.91,13.44,0,7.4,4,12.13a12.29,12.29,0,0,0,9.79,4.73,12,12,0,0,0,5.91-1.33A12.24,12.24,0,0,0,280,262.1v4.51h8.47V222.06h-8.83v15.45a10.43,10.43,0,0,0-9.17-5Z"></path><path class="cls-1" d="M303.31,229.45h-8.84v-7.39h8.84Zm-8.84,3.77h8.84v33.39h-8.84Z"></path><path class="cls-1" d="M324.81,260.46a7.05,7.05,0,0,1-5.94-2.72q-2.08-2.72-2.08-7.73t2.08-7.71a7.86,7.86,0,0,1,11.86,0c1.38,1.8,2.06,4.37,2.06,7.71s-.68,5.92-2.06,7.73A7,7,0,0,1,324.81,260.46ZM341.92,250a19.4,19.4,0,0,0-4.22-12.48q-4.23-5.28-12.84-5.28T312,237.49a20.64,20.64,0,0,0,0,25q4.23,5.21,12.83,5.2t12.84-5.2A19.29,19.29,0,0,0,341.92,250Z"></path><path class="cls-1" d="M379.73,250a13.17,13.17,0,0,1-1.91,7.53,6.26,6.26,0,0,1-5.54,2.83,7,7,0,0,1-4.33-1.38q-3.21-2.37-3.21-8.21a17,17,0,0,1,.92-6.09,6.53,6.53,0,0,1,6.56-4.52,6.16,6.16,0,0,1,5.74,3A13.2,13.2,0,0,1,379.73,250Zm-5-17.45a11,11,0,0,0-6.9,2.23,14,14,0,0,0-3,3.42v-4.93h-8.4v44.49h8.69v-15.3a12.85,12.85,0,0,0,2.81,3.18,10.71,10.71,0,0,0,6.6,2,12.77,12.77,0,0,0,10.18-4.63q3.94-4.62,3.95-13.43,0-8.37-4-12.68A13,13,0,0,0,374.78,232.5Z"></path><path class="cls-1" d="M411.52,232.52l.74,0v8.84l-1.46-.06h-1q-5.26,0-7.06,3.42a13.34,13.34,0,0,0-1,5.93v15.92H393V233.22h8.26v5.86a18.47,18.47,0,0,1,3.5-4.54,9.57,9.57,0,0,1,6.35-2Z"></path><path class="cls-1" d="M430.38,260.46a7,7,0,0,1-5.93-2.72q-2.08-2.72-2.09-7.73t2.09-7.71a7.85,7.85,0,0,1,11.85,0q2.07,2.7,2.07,7.71t-2.07,7.73A7,7,0,0,1,430.38,260.46ZM447.49,250a19.35,19.35,0,0,0-4.22-12.48q-4.23-5.28-12.83-5.28t-12.83,5.28a20.6,20.6,0,0,0,0,25q4.22,5.21,12.83,5.2t12.83-5.2A19.24,19.24,0,0,0,447.49,250Z"></path><path class="cls-1" d="M73.91,305.91a4.59,4.59,0,0,0-4.3-2.71,4,4,0,0,0-4.14,3.87c0,2.15,2.22,3.14,3.91,3.9l1.65.73c3.24,1.42,6,3,6,7A7.87,7.87,0,0,1,61.41,320l2.71-.77a5.13,5.13,0,0,0,5,4.63A5,5,0,0,0,74.24,319c0-2.91-2.29-3.9-4.6-5l-1.52-.66C65.21,312,62.7,310.54,62.7,307c0-3.87,3.27-6.35,7-6.35a7.15,7.15,0,0,1,6.45,3.87Z"></path><path class="cls-1" d="M108.29,313.55a13,13,0,1,1-13-12.93A12.92,12.92,0,0,1,108.29,313.55Zm-23.21,0A10.22,10.22,0,1,0,95.3,303.2,10.3,10.3,0,0,0,85.08,313.52Z"></path><path class="cls-1" d="M117.25,315.9c0,1.85-.07,4,1.09,5.55a6.42,6.42,0,0,0,5,2.38,6.6,6.6,0,0,0,4.9-2.21c1.32-1.59,1.22-3.77,1.22-5.72V301.05h2.78v15.61c0,2.71-.2,4.86-2.18,6.91a9.18,9.18,0,0,1-6.72,2.84,9.3,9.3,0,0,1-6.44-2.54c-2.19-2.09-2.45-4.37-2.45-7.21V301.05h2.78Z"></path><path class="cls-1" d="M139.83,300l19.44,20.37V301.05h2.78v26.06L142.6,306.77V326h-2.77Z"></path><path class="cls-1" d="M169.71,301.05h4.7c3.73,0,6.78.5,9.72,3a12.81,12.81,0,0,1,.07,18.78c-3,2.65-6,3.14-9.86,3.14h-4.63Zm4.8,22.35c3,0,5.59-.43,7.87-2.58a10.18,10.18,0,0,0-.14-14.78c-2.28-2-4.79-2.41-7.73-2.41h-2V323.4Z"></path><path class="cls-1" d="M232,313.55a13,13,0,1,1-13-12.93A12.92,12.92,0,0,1,232,313.55Zm-23.21,0A10.22,10.22,0,1,0,219,303.2,10.3,10.3,0,0,0,208.79,313.52Z"></path><path class="cls-1" d="M241,303.63V311h8.3v2.58H241V326h-2.77V301.05h11.34v2.58Z"></path><path class="cls-1" d="M280.5,305.91a4.57,4.57,0,0,0-4.3-2.71,4,4,0,0,0-4.13,3.87c0,2.15,2.21,3.14,3.9,3.9l1.65.73c3.24,1.42,6,3,6,7A7.87,7.87,0,0,1,268,320l2.71-.77a5.14,5.14,0,0,0,5,4.63,5,5,0,0,0,5.12-4.86c0-2.91-2.28-3.9-4.59-5l-1.53-.66c-2.91-1.32-5.42-2.81-5.42-6.38,0-3.87,3.28-6.35,7-6.35a7.16,7.16,0,0,1,6.45,3.87Z"></path><path class="cls-1" d="M309.16,306.51a10.65,10.65,0,0,0-7.6-3.31,10.32,10.32,0,0,0,.07,20.63,10.9,10.9,0,0,0,7.53-3.3V324a12.88,12.88,0,0,1-20.43-10.35,13,13,0,0,1,13-13,12,12,0,0,1,7.44,2.45Z"></path><path class="cls-1" d="M320.07,318.91l-3,7.07h-3l11.51-26.12L336.74,326h-3.08l-2.94-7.07Zm5.39-12.57-4.26,10h8.43Z"></path><path class="cls-1" d="M342.09,300l19.44,20.37V301.05h2.78v26.06l-19.44-20.34V326h-2.78Z"></path><path class="cls-1" d="M372,301.05h4.69c3.74,0,6.78.5,9.72,3a12.79,12.79,0,0,1,.07,18.78c-3,2.65-5.95,3.14-9.85,3.14H372Zm4.79,22.35c3,0,5.59-.43,7.87-2.58a10.19,10.19,0,0,0-.13-14.78c-2.28-2-4.8-2.41-7.74-2.41h-2V323.4Z"></path><path class="cls-1" d="M399.71,326h-2.77V301.05h2.77Z"></path><path class="cls-1" d="M407.42,300l19.44,20.37V301.05h2.78v26.06l-19.45-20.34V326h-2.77Z"></path><path class="cls-1" d="M441,318.91,438,326h-3l11.51-26.12L457.71,326h-3.08l-2.94-7.07Zm5.39-12.57-4.26,10h8.43Z"></path><path class="cls-1" d="M467.39,320.06l7.11-19h3l-10.12,26.42-10.11-26.42h3Z"></path><path class="cls-1" d="M485.54,326h-2.77V301.05h2.77Z"></path><path class="cls-1" d="M496.82,318.91l-3,7.07h-3l11.5-26.12L513.48,326h-3.07l-3-7.07Zm5.39-12.57-4.27,10h8.43Z"></path></svg> 