<?xml version="1.0" encoding="UTF-8"?> <!-- Generator: Adobe Illustrator 23.0.3, SVG Export Plug-In . SVG Version: 6.00 Build 0) --> <svg xmlns="http://www.w3.org/2000/svg" xmlns:xlink="http://www.w3.org/1999/xlink" id="Layer_1" x="0px" y="0px" viewBox="0 0 1000 1000" style="enable-background:new 0 0 1000 1000;" xml:space="preserve"> <style type="text/css"> .st0{fill:#231F20;} </style> <g> <g> <path d="M637.9,424.32c0,76.15-61.74,137.88-137.9,137.88c-76.16,0-137.9-61.73-137.9-137.88c0-76.15,61.74-137.89,137.9-137.89 C576.16,286.43,637.9,348.16,637.9,424.32z M500,301.3c-67.95,0-123.02,55.07-123.02,123.02c0,67.93,55.08,123.01,123.02,123.01 c67.94,0,123.02-55.07,123.02-123.01C623.02,356.37,567.94,301.3,500,301.3z"></path> <path d="M499.82,306.33l-74.96,213.43l151.77-0.36L499.82,306.33z M553.36,506.47l-45.79,0.37l21.78-69.05L553.36,506.47z M499.82,353.6l19.56,55.76L488,506.84l-40.25,0.37L499.82,353.6z"></path> </g> <g> <path d="M46.49,655.44l-19.3-3.51c2.17-7.84,5.9-13.63,11.2-17.4c5.3-3.76,13.17-5.65,23.61-5.65c9.49,0,16.55,1.13,21.19,3.4 c4.64,2.26,7.91,5.13,9.8,8.62c1.89,3.49,2.84,9.88,2.84,19.19l-0.23,25.02c0,7.12,0.34,12.37,1.02,15.75 c0.68,3.38,1.96,7.01,3.82,10.87H79.41c-0.55-1.42-1.24-3.53-2.04-6.33c-0.35-1.27-0.61-2.11-0.76-2.52 c-3.63,3.56-7.52,6.23-11.65,8.01c-4.14,1.78-8.55,2.67-13.24,2.67c-8.27,0-14.8-2.26-19.56-6.79 c-4.77-4.53-7.15-10.25-7.15-17.17c0-4.58,1.08-8.66,3.25-12.25c2.17-3.58,5.21-6.33,9.12-8.24c3.91-1.91,9.55-3.57,16.91-5 c9.94-1.88,16.83-3.64,20.66-5.27v-2.13c0-4.12-1.01-7.06-3.03-8.81c-2.02-1.75-5.83-2.63-11.43-2.63c-3.78,0-6.73,0.75-8.85,2.25 C49.52,649.05,47.81,651.68,46.49,655.44z M74.95,672.83c-2.73,0.92-7.04,2.01-12.94,3.28c-5.9,1.27-9.76,2.52-11.58,3.74 c-2.78,1.98-4.16,4.5-4.16,7.55c0,3,1.11,5.6,3.33,7.78c2.22,2.19,5.04,3.28,8.47,3.28c3.83,0,7.49-1.27,10.97-3.81 c2.57-1.93,4.27-4.3,5.07-7.09c0.55-1.83,0.83-5.32,0.83-10.46V672.83z"></path> <path d="M159.88,711.74v-12.13c-2.93,4.32-6.77,7.73-11.54,10.22c-4.77,2.49-9.8,3.74-15.1,3.74c-5.4,0-10.24-1.2-14.53-3.59 c-4.29-2.39-7.39-5.74-9.31-10.07c-1.92-4.32-2.88-10.3-2.88-17.93v-51.27h21.26v37.23c0,11.39,0.39,18.37,1.17,20.94 c0.78,2.57,2.21,4.6,4.27,6.1c2.07,1.5,4.69,2.25,7.87,2.25c3.63,0,6.89-1,9.76-3.01c2.88-2.01,4.85-4.5,5.9-7.48 c1.06-2.98,1.59-10.26,1.59-21.86v-34.18h21.26v81.02H159.88z"></path> <path d="M264.1,711.74h-19.75v-11.9c-3.28,4.63-7.15,8.08-11.61,10.34c-4.47,2.26-8.97,3.39-13.51,3.39 c-9.23,0-17.14-3.75-23.72-11.25c-6.59-7.5-9.88-17.97-9.88-31.39c0-13.73,3.2-24.17,9.61-31.32c6.41-7.15,14.5-10.72,24.29-10.72 c8.98,0,16.75,3.77,23.31,11.29V599.9h21.27V711.74z M207.34,669.48c0,8.65,1.19,14.91,3.56,18.77c3.43,5.59,8.22,8.39,14.38,8.39 c4.89,0,9.06-2.1,12.49-6.3c3.43-4.19,5.14-10.46,5.14-18.81c0-9.31-1.67-16.01-5-20.1c-3.33-4.1-7.59-6.15-12.79-6.15 c-5.04,0-9.27,2.02-12.68,6.07C209.04,655.4,207.34,661.44,207.34,669.48z"></path> <path d="M274.16,619.74V599.9h21.26v19.84H274.16z M274.16,711.74v-81.02h21.26v81.02H274.16z"></path> <path d="M301.4,670.09c0-7.12,1.64-14.01,4.93-20.67c3.29-6.66,7.93-11.75,13.96-15.26c6.02-3.51,12.74-5.27,20.17-5.27 c11.47,0,20.87,3.98,28.2,11.94c7.33,7.96,10.99,18.02,10.99,30.17c0,12.26-3.7,22.42-11.1,30.48 c-7.4,8.06-16.72,12.09-27.95,12.09c-6.95,0-13.57-1.68-19.88-5.03c-6.31-3.36-11.1-8.28-14.39-14.76 C303.04,687.29,301.4,679.4,301.4,670.09z M321.96,671.23c0,8.03,1.79,14.19,5.35,18.46c3.57,4.27,7.97,6.41,13.21,6.41 c5.24,0,9.63-2.13,13.17-6.41c3.54-4.27,5.32-10.48,5.32-18.61c0-7.93-1.78-14.04-5.32-18.31c-3.55-4.27-7.94-6.41-13.17-6.41 c-5.24,0-9.64,2.13-13.21,6.41C323.75,657.04,321.96,663.2,321.96,671.23z"></path> <path d="M456.25,630.72v17.09h-18.18v32.66c0,6.61,0.14,10.46,0.42,11.56c0.28,1.09,0.91,2,1.89,2.71 c0.99,0.71,2.18,1.07,3.59,1.07c1.97,0,10.55-0.06,10.55-0.06l-0.18,17.77c0,0-10.55,0.06-16.8,0.06c-3.83,0-7.29-0.65-10.37-1.94 c-3.08-1.3-5.33-2.98-6.77-5.04c-1.44-2.06-2.43-4.84-2.99-8.35c-0.45-2.49-0.68-7.53-0.68-15.1v-35.33h-17.45v-17.09h17.45v-16.1 l21.34-12.51v28.61H456.25z"></path> <path d="M506.85,685.96l20.27,3.59c-2.61,7.83-6.73,13.8-12.34,17.89c-5.62,4.09-12.66,6.14-21.1,6.14 c-13.37,0-23.27-4.6-29.68-13.81c-5.07-7.38-7.6-16.68-7.6-27.92c0-13.43,3.33-23.94,9.99-31.55 c6.66-7.61,15.08-11.41,25.26-11.41c11.44,0,20.46,3.98,27.08,11.94c6.61,7.96,9.77,20.15,9.48,36.58h-50.97 c0.15,6.36,1.79,11.3,4.92,14.84c3.14,3.54,7.05,5.31,11.73,5.31c3.19,0,5.87-0.92,8.03-2.75 C504.1,692.98,505.74,690.03,506.85,685.96z M508.01,664.29c-0.15-6.21-1.66-10.92-4.56-14.15c-2.9-3.23-6.42-4.85-10.57-4.85 c-4.44,0-8.11,1.71-11,5.11c-2.9,3.41-4.32,8.04-4.27,13.89H508.01z"></path> <path d="M603.55,654.68l-19.02,3.81c-0.64-4.22-2.09-7.4-4.36-9.54c-2.26-2.14-5.21-3.2-8.82-3.2c-4.81,0-8.64,1.84-11.49,5.53 c-2.86,3.69-4.29,9.85-4.29,18.5c0,9.61,1.45,16.4,4.36,20.37c2.9,3.97,6.8,5.95,11.7,5.95c3.66,0,6.66-1.16,8.99-3.47 c2.34-2.31,3.98-6.29,4.94-11.94l18.94,3.58c-1.97,9.66-5.74,16.96-11.33,21.89c-5.58,4.93-13.07,7.4-22.44,7.4 c-10.66,0-19.17-3.74-25.5-11.21c-6.34-7.48-9.51-17.83-9.51-31.05c0-13.38,3.18-23.79,9.54-31.24 c6.36-7.45,14.96-11.18,25.81-11.18c8.88,0,15.94,2.13,21.18,6.37C597.49,639.51,601.26,645.98,603.55,654.68z"></path> <path d="M631.85,599.9v41.12c6.86-8.09,15.06-12.13,24.59-12.13c4.89,0,9.31,0.92,13.24,2.75c3.93,1.83,6.9,4.17,8.89,7.02 c1.99,2.85,3.36,6,4.09,9.46c0.73,3.46,1.1,8.83,1.1,16.1v47.53h-21.27v-42.8c0-8.5-0.41-13.89-1.21-16.18 c-0.81-2.29-2.23-4.1-4.27-5.45c-2.04-1.35-4.6-2.02-7.68-2.02c-3.53,0-6.68,0.87-9.46,2.6c-2.77,1.73-4.81,4.34-6.1,7.82 c-1.28,3.49-1.92,8.64-1.92,15.45v40.58h-21.27V599.9H631.85z"></path> <path d="M763.01,711.74h-21.26v-41.35c0-8.75-0.46-14.41-1.36-16.97c-0.91-2.57-2.38-4.57-4.43-5.99 c-2.04-1.43-4.5-2.14-7.38-2.14c-3.68,0-6.98,1.02-9.91,3.05c-2.93,2.04-4.93,4.73-6.02,8.09c-1.08,3.36-1.63,9.56-1.63,18.62 v36.7h-21.26v-81.02h19.75v11.9c7.01-9.16,15.83-13.74,26.48-13.74c4.7,0,8.98,0.85,12.87,2.56c3.88,1.7,6.83,3.88,8.82,6.52 c1.99,2.64,3.37,5.65,4.16,9c0.78,3.36,1.17,8.16,1.17,14.42V711.74z"></path> <path d="M771.33,619.74V599.9h21.26v19.84H771.33z M771.33,711.74v-81.02h21.26v81.02H771.33z"></path> <path d="M866.99,654.68l-18.41,3.81c-0.62-4.22-2.03-7.4-4.22-9.54c-2.19-2.14-5.04-3.2-8.54-3.2c-4.65,0-8.37,1.84-11.13,5.53 c-2.77,3.69-4.16,9.85-4.16,18.5c0,9.61,1.41,16.4,4.22,20.37c2.81,3.97,6.59,5.95,11.33,5.95c3.54,0,6.45-1.16,8.71-3.47 c2.27-2.31,3.86-6.29,4.78-11.94l18.35,3.58c-1.91,9.66-5.56,16.96-10.97,21.89c-5.41,4.93-12.65,7.4-21.74,7.4 c-10.32,0-18.55-3.74-24.7-11.21c-6.13-7.48-9.2-17.83-9.2-31.05c0-13.38,3.08-23.79,9.24-31.24 c6.16-7.45,14.49-11.18,24.99-11.18c8.6,0,15.43,2.13,20.51,6.37C861.14,639.51,864.77,645.98,866.99,654.68z"></path> <path d="M892.68,655.44l-19.29-3.51c2.17-7.84,5.9-13.63,11.2-17.4c5.3-3.76,13.16-5.65,23.61-5.65c9.49,0,16.55,1.13,21.19,3.4 c4.64,2.26,7.91,5.13,9.8,8.62c1.89,3.49,2.84,9.88,2.84,19.19l-0.23,25.02c0,7.12,0.34,12.37,1.02,15.75 c0.69,3.38,1.96,7.01,3.82,10.87H925.6c-0.56-1.42-1.24-3.53-2.04-6.33c-0.36-1.27-0.61-2.11-0.77-2.52 c-3.63,3.56-7.52,6.23-11.65,8.01c-4.14,1.78-8.55,2.67-13.24,2.67c-8.27,0-14.79-2.26-19.56-6.79 c-4.77-4.53-7.15-10.25-7.15-17.17c0-4.58,1.08-8.66,3.25-12.25c2.17-3.58,5.21-6.33,9.12-8.24c3.91-1.91,9.54-3.57,16.91-5 c9.94-1.88,16.83-3.64,20.66-5.27v-2.13c0-4.12-1.01-7.06-3.03-8.81c-2.02-1.75-5.83-2.63-11.43-2.63c-3.79,0-6.74,0.75-8.86,2.25 C895.71,649.05,893.99,651.68,892.68,655.44z M921.14,672.83c-2.73,0.92-7.04,2.01-12.94,3.28c-5.9,1.27-9.76,2.52-11.58,3.74 c-2.77,1.98-4.16,4.5-4.16,7.55c0,3,1.11,5.6,3.33,7.78c2.22,2.19,5.04,3.28,8.48,3.28c3.83,0,7.49-1.27,10.98-3.81 c2.57-1.93,4.26-4.3,5.07-7.09c0.55-1.83,0.83-5.32,0.83-10.46V672.83z"></path> <g> <path class="st0" d="M962.67,687.47c2.12,0,4.14,0.53,6.08,1.58c1.94,1.06,3.47,2.57,4.58,4.55c1.11,1.97,1.67,4.04,1.67,6.19 c0,2.15-0.54,4.19-1.63,6.14c-1.09,1.95-2.61,3.46-4.56,4.55c-1.94,1.09-3.99,1.63-6.14,1.63c-2.14,0-4.19-0.54-6.14-1.63 c-1.95-1.09-3.47-2.61-4.56-4.55c-1.09-1.95-1.63-3.99-1.63-6.14c0-2.16,0.56-4.22,1.67-6.19c1.11-1.97,2.64-3.49,4.58-4.55 C958.53,688,960.56,687.47,962.67,687.47z M962.69,689.88c-1.69,0-3.32,0.43-4.87,1.27c-1.56,0.85-2.79,2.07-3.68,3.65 c-0.9,1.59-1.34,3.25-1.34,4.99c0,1.73,0.44,3.38,1.31,4.94c0.88,1.57,2.1,2.79,3.66,3.67c1.57,0.88,3.21,1.32,4.93,1.32 c1.72,0,3.37-0.44,4.93-1.32c1.56-0.88,2.78-2.1,3.66-3.67c0.88-1.56,1.32-3.21,1.32-4.94c0-1.74-0.45-3.4-1.34-4.99 c-0.9-1.58-2.13-2.81-3.68-3.65C966.01,690.31,964.39,689.88,962.69,689.88z M957.1,706.39v-13.08h2.66 c2.49,0,3.88,0.01,4.18,0.04c0.88,0.07,1.57,0.25,2.05,0.52c0.49,0.28,0.89,0.69,1.22,1.25c0.33,0.57,0.49,1.19,0.49,1.87 c0,0.95-0.31,1.76-0.92,2.42c-0.62,0.67-1.48,1.09-2.6,1.25c0.39,0.15,0.7,0.31,0.92,0.49c0.22,0.18,0.51,0.51,0.88,1 c0.1,0.13,0.42,0.66,0.97,1.59l1.54,2.64h-3.28l-1.09-2.13c-0.74-1.42-1.35-2.32-1.83-2.69c-0.48-0.38-1.1-0.56-1.84-0.56h-0.69 v5.37H957.1z M959.76,698.96h1.08c1.54,0,2.49-0.06,2.86-0.18c0.37-0.12,0.66-0.32,0.88-0.62c0.22-0.3,0.32-0.63,0.32-1.01 c0-0.36-0.11-0.68-0.32-0.97c-0.21-0.29-0.51-0.49-0.89-0.61c-0.39-0.12-1.34-0.18-2.85-0.18h-1.08V698.96z"></path> </g> <rect x="387.06" y="660.14" width="22.26" height="18.6"></rect> </g> </g> </svg> 