<svg width="21" height="20" viewBox="0 0 21 20" fill="none" xmlns="http://www.w3.org/2000/svg">
<path d="M6.13846 15.9375C4.98336 15.9375 4.03846 16.8514 4.03846 17.9688C4.03846 19.086 4.98336 20 6.13846 20C7.29356 20 8.23851 19.086 8.23851 17.9688C8.23846 16.8514 7.29351 15.9375 6.13846 15.9375ZM0 0V2.03125H2.1L5.88015 9.43758L4.2997 11.9256C4.1423 12.1795 4.0372 12.535 4.0372 12.8906C4.0372 14.2505 4.9976 14.9219 6.3 14.9219H18.5769V12.9688H6.5571C6.3997 12.9688 6.2946 12.8671 6.2946 12.7149C6.2946 12.6643 6.40601 12.461 6.40601 12.461L7.4551 10.8594H15.2773C16.0648 10.8594 16.7477 10.4533 17.1148 9.79319L20.8949 3.50414C20.9573 3.38398 21 3.19916 21 2.99638C21 2.43749 20.5273 2.03129 19.95 2.03129H4.4102L3.4125 0H0ZM16.4769 15.9375C15.3218 15.9375 14.3769 16.8514 14.3769 17.9688C14.3769 19.086 15.3218 20 16.4769 20C17.632 20 18.5769 19.086 18.5769 17.9687C18.5769 16.8514 17.632 15.9375 16.4769 15.9375Z" fill="#010101"/>
</svg>
