<?xml version="1.0" encoding="UTF-8"?> <svg xmlns="http://www.w3.org/2000/svg" width="25" height="19" viewBox="0 0 25 19" fill="none"><path d="M24.7618 3.40146C24.7615 3.40117 24.7613 3.40094 24.761 3.40065L21.5003 0.232072C21.3474 0.0835097 21.1401 0 20.9239 0H4.07606C3.8598 0 3.65252 0.0834623 3.49964 0.232072L0.238915 3.40065C0.238622 3.40094 0.238427 3.40117 0.238134 3.40146C0.0913082 3.54447 0 3.74774 0 3.96093V16.6359C0 17.0734 0.364989 17.4281 0.815231 17.4281H2.18305V18.2078C2.18305 18.6453 2.54804 19 2.99828 19C3.44847 19 3.81351 18.6453 3.81351 18.2078V17.4281H21.2048V18.2078C21.2048 18.6453 21.5697 19 22.02 19C22.4702 19 22.8352 18.6453 22.8352 18.2078V17.4281H24.1848C24.635 17.4281 25 17.0734 25 16.6359V3.96093C24.9999 3.74874 24.9095 3.54532 24.7618 3.40146ZM4.41375 1.58436H20.5862L22.2166 3.16872H2.78329L4.41375 1.58436ZM23.3695 15.8438C23.0469 15.8438 2.30541 15.8438 1.63046 15.8438V4.75313H23.3695V15.8438Z" fill="#191919"></path><path d="M17.663 6.33749C15.4154 6.33749 13.5869 8.11435 13.5869 10.2984C13.5869 12.4825 15.4154 14.2593 17.663 14.2593C19.9105 14.2593 21.739 12.4825 21.739 10.2984C21.739 8.1144 19.9105 6.33749 17.663 6.33749ZM17.663 12.675C16.3144 12.675 15.2173 11.6089 15.2173 10.2985C15.2173 9.26569 15.8989 8.38519 16.8477 8.05817V10.2985C16.8477 10.7359 17.2127 11.0907 17.663 11.0907C18.1132 11.0907 18.4782 10.736 18.4782 10.2985V8.05817C19.4271 8.38519 20.1086 9.26574 20.1086 10.2985C20.1086 11.6089 19.0115 12.675 17.663 12.675Z" fill="#191919"></path><path d="M5.70652 6.33749H4.07606C3.62587 6.33749 3.26083 6.69217 3.26083 7.12969C3.26083 7.56717 3.62582 7.9219 4.07606 7.9219H5.70647C6.15667 7.9219 6.5217 7.56722 6.5217 7.12969C6.5217 6.69222 6.15672 6.33749 5.70652 6.33749Z" fill="#191919"></path><path d="M5.70652 9.50626H4.07606C3.62587 9.50626 3.26083 9.86094 3.26083 10.2985C3.26083 10.7359 3.62582 11.0907 4.07606 11.0907H5.70647C6.15667 11.0907 6.5217 10.736 6.5217 10.2985C6.5217 9.86094 6.15672 9.50626 5.70652 9.50626Z" fill="#191919"></path><path d="M5.70652 12.675H4.07606C3.62587 12.675 3.26083 13.0297 3.26083 13.4672C3.26083 13.9047 3.62582 14.2594 4.07606 14.2594H5.70647C6.15667 14.2594 6.5217 13.9047 6.5217 13.4672C6.5217 13.0297 6.15672 12.675 5.70652 12.675Z" fill="#191919"></path><path d="M10.5978 6.33749H8.96735C8.51715 6.33749 8.15212 6.69217 8.15212 7.12969C8.15212 7.56717 8.5171 7.9219 8.96735 7.9219H10.5978C11.048 7.9219 11.413 7.56722 11.413 7.12969C11.413 6.69222 11.048 6.33749 10.5978 6.33749Z" fill="#191919"></path><path d="M10.5978 9.50626H8.96735C8.51715 9.50626 8.15212 9.86094 8.15212 10.2985C8.15212 10.7359 8.5171 11.0907 8.96735 11.0907H10.5978C11.048 11.0907 11.413 10.736 11.413 10.2985C11.413 9.86094 11.048 9.50626 10.5978 9.50626Z" fill="#191919"></path><path d="M10.5978 12.675H8.96735C8.51715 12.675 8.15212 13.0297 8.15212 13.4672C8.15212 13.9047 8.5171 14.2594 8.96735 14.2594H10.5978C11.048 14.2594 11.413 13.9047 11.413 13.4672C11.413 13.0297 11.048 12.675 10.5978 12.675Z" fill="#191919"></path></svg> 