<?xml version="1.0" encoding="UTF-8"?> <svg xmlns="http://www.w3.org/2000/svg" width="17" height="28" viewBox="0 0 17 28" fill="none"><path d="M15.2237 0H1.77645C0.796922 0 0 0.797523 0 1.77795V25.2875C0 26.267 0.796922 27.0638 1.77645 27.0638H15.2237C16.2031 27.0638 17 26.2669 17 25.2875V1.77795C17 0.797523 16.2031 0 15.2237 0ZM15.4975 25.2875C15.4975 25.4385 15.3746 25.5613 15.2237 25.5613H1.77645C1.6279 25.5613 1.50249 25.4359 1.50249 25.2875V1.77795C1.50249 1.626 1.6254 1.50249 1.77645 1.50249H15.2237C15.3747 1.50249 15.4975 1.626 15.4975 1.77795V25.2875Z" fill="black"></path><path d="M8.50029 13.2024C5.45103 13.2024 2.97021 15.6833 2.97021 18.7328C2.97021 21.7819 5.45103 24.2625 8.50029 24.2625C11.5495 24.2625 14.0304 21.7819 14.0304 18.7328C14.0304 15.6833 11.5495 13.2024 8.50029 13.2024ZM8.50029 22.76C6.2795 22.76 4.47271 20.9535 4.47271 18.7328C4.47271 16.5118 6.2795 14.7049 8.50029 14.7049C10.7211 14.7049 12.5279 16.5118 12.5279 18.7328C12.5279 20.9535 10.7211 22.76 8.50029 22.76Z" fill="black"></path><path d="M8.49986 16.1892C7.09744 16.1892 5.95654 17.3303 5.95654 18.7328C5.95654 20.1352 7.09744 21.276 8.49986 21.276C9.90229 21.276 11.0433 20.1352 11.0433 18.7328C11.0432 17.3303 9.90229 16.1892 8.49986 16.1892ZM8.49986 19.7735C7.92591 19.7735 7.45904 19.3066 7.45904 18.7327C7.45904 18.1587 7.92591 17.6916 8.49986 17.6916C9.07371 17.6916 9.54079 18.1587 9.54079 18.7327C9.54069 19.3067 9.07371 19.7735 8.49986 19.7735Z" fill="black"></path><path d="M13.2791 2.80127H3.72146C3.30657 2.80127 2.97021 3.13763 2.97021 3.55252V11.127C2.97021 11.5419 3.30657 11.8782 3.72146 11.8782H13.2791C13.6941 11.8782 14.0304 11.5419 14.0304 11.127V3.55252C14.0304 3.13763 13.694 2.80127 13.2791 2.80127ZM12.5279 10.3757H4.47271V4.30376H12.5279V10.3757Z" fill="black"></path></svg> 