<?xml version="1.0" encoding="UTF-8"?> <svg xmlns="http://www.w3.org/2000/svg" width="15" height="25" viewBox="0 0 15 25" fill="none"><path d="M14.2917 8.32852H12.1079V4.76089C12.1079 2.13574 10.0424 0 7.50345 0H7.49655C4.95764 0 2.89214 2.13574 2.89214 4.76089V8.32852H0.708349C0.317151 8.32852 0 8.65644 0 9.06094C0 9.43818 0.275925 9.74854 0.630431 9.78872V12.4928C0.630431 15.6912 2.68559 18.4022 5.50208 19.2892V20.9476H4.85432C3.3469 20.9476 2.12051 22.2156 2.12051 23.7743V24.2676C2.12051 24.6721 2.43767 25 2.82886 25H12.1713C12.5625 25 12.8796 24.6721 12.8796 24.2676V23.7743C12.8796 22.2156 11.6532 20.9476 10.1458 20.9476H9.49806V19.2892C12.3145 18.4022 14.3697 15.6912 14.3697 12.4928V9.78872C14.7241 9.74858 15 9.43818 15 9.06094C15 8.65644 14.6828 8.32852 14.2917 8.32852ZM4.30884 10.7511H5.77021C6.16141 10.7511 6.47856 10.4231 6.47856 10.0187C6.47856 9.61416 6.16141 9.28623 5.77021 9.28623H4.30884V8.35972H5.77021C6.16141 8.35972 6.47856 8.03179 6.47856 7.6273C6.47856 7.2228 6.16141 6.89487 5.77021 6.89487H4.30884V5.96836H5.77021C6.16141 5.96836 6.47856 5.64043 6.47856 5.23594C6.47856 4.83145 6.16141 4.50352 5.77021 4.50352H4.31947C4.44702 2.80601 5.82268 1.46484 7.49655 1.46484H7.50345C9.17732 1.46484 10.553 2.80601 10.6805 4.50352H9.22979C8.83859 4.50352 8.52144 4.83145 8.52144 5.23594C8.52144 5.64043 8.83859 5.96836 9.22979 5.96836H10.6912V6.89487H9.22979C8.83859 6.89487 8.52144 7.2228 8.52144 7.6273C8.52144 8.03179 8.83859 8.35972 9.22979 8.35972H10.6912V9.28623H9.22979C8.83859 9.28623 8.52144 9.61416 8.52144 10.0187C8.52144 10.4231 8.83859 10.7511 9.22979 10.7511H10.6912V12.4964C10.6912 14.3139 9.26114 15.7925 7.50345 15.7925H7.49655C5.73881 15.7925 4.30884 14.3139 4.30884 12.4964V10.7511ZM10.1457 22.4124C10.7931 22.4124 11.3329 22.8979 11.4425 23.5352H3.55747C3.66712 22.8979 4.20689 22.4124 4.85422 22.4124H10.1457ZM6.91873 20.9476V19.5959H8.08127V20.9476H6.91873ZM12.9528 12.4928C12.9529 15.6018 10.5068 18.1311 7.5 18.1311C4.49325 18.1311 2.04708 15.6018 2.04708 12.4928V9.79336H2.89209V12.4964C2.89209 15.1216 4.95764 17.2573 7.49651 17.2573H7.5034C10.0423 17.2573 12.1078 15.1216 12.1078 12.4964V9.79336H12.9528V12.4928Z" fill="#191919"></path></svg> 