<svg width="59" height="61" viewBox="0 0 59 61" fill="none" xmlns="http://www.w3.org/2000/svg">
    <g filter="url(#filter0_d)">
        <path fill-rule="evenodd" clip-rule="evenodd" d="M21 33.5714C21 33.5714 22.7268 29.9524 29.5 29.9524C36.2732 29.9524 38 33.5714 38 33.5714V36.2857C38 37.7849 36.8046 39 35.3158 39H23.6842C22.2016 39 21 37.7813 21 36.2857V33.5714ZM22.7895 36.2857C22.7895 36.7833 23.1912 37.1905 23.6842 37.1905H35.3158C35.8133 37.1905 36.2105 36.7879 36.2105 36.2857V34.1342C35.9949 33.842 35.6791 33.538 35.2639 33.2439C33.9737 32.331 32.1037 31.761 29.5 31.761C26.8963 31.761 25.0263 32.3301 23.7361 33.2439C23.3209 33.538 23.0051 33.842 22.7895 34.1342V36.2857ZM31.7368 24.0714C31.7368 22.822 30.7356 21.8095 29.5 21.8095C28.2644 21.8095 27.2632 22.822 27.2632 24.0714V24.5238C27.2632 25.52 28.0684 26.3333 29.0526 26.3333H29.9474C30.9369 26.3333 31.7368 25.5263 31.7368 24.5265V24.0714ZM33.5263 24.5238C33.5263 26.5233 31.6948 28.1429 29.9474 28.1429H29.0526C27.0842 28.1429 25.4737 26.5224 25.4737 24.5238V24.0714C25.4737 21.8231 27.2766 20 29.5 20C31.7234 20 33.5263 21.8231 33.5263 24.0714V24.5238Z" fill="black"/>
        <path fill-rule="evenodd" clip-rule="evenodd" d="M21 33.5714C21 33.5714 22.7268 29.9524 29.5 29.9524C36.2732 29.9524 38 33.5714 38 33.5714V36.2857C38 37.7849 36.8046 39 35.3158 39H23.6842C22.2016 39 21 37.7813 21 36.2857V33.5714ZM22.7895 36.2857C22.7895 36.7833 23.1912 37.1905 23.6842 37.1905H35.3158C35.8133 37.1905 36.2105 36.7879 36.2105 36.2857V34.1342C35.9949 33.842 35.6791 33.538 35.2639 33.2439C33.9737 32.331 32.1037 31.761 29.5 31.761C26.8963 31.761 25.0263 32.3301 23.7361 33.2439C23.3209 33.538 23.0051 33.842 22.7895 34.1342V36.2857ZM31.7368 24.0714C31.7368 22.822 30.7356 21.8095 29.5 21.8095C28.2644 21.8095 27.2632 22.822 27.2632 24.0714V24.5238C27.2632 25.52 28.0684 26.3333 29.0526 26.3333H29.9474C30.9369 26.3333 31.7368 25.5263 31.7368 24.5265V24.0714ZM33.5263 24.5238C33.5263 26.5233 31.6948 28.1429 29.9474 28.1429H29.0526C27.0842 28.1429 25.4737 26.5224 25.4737 24.5238V24.0714C25.4737 21.8231 27.2766 20 29.5 20C31.7234 20 33.5263 21.8231 33.5263 24.0714V24.5238Z" stroke="black" stroke-width="0.2"/>
    </g>
    <defs>
        <filter id="filter0_d" x="0.900024" y="0.899902" width="57.2" height="59.2" filterUnits="userSpaceOnUse" color-interpolation-filters="sRGB">
            <feFlood flood-opacity="0" result="BackgroundImageFix"/>
            <feColorMatrix in="SourceAlpha" type="matrix" values="0 0 0 0 0 0 0 0 0 0 0 0 0 0 0 0 0 0 127 0"/>
            <feOffset dy="1"/>
            <feGaussianBlur stdDeviation="10"/>
            <feColorMatrix type="matrix" values="0 0 0 0 0 0 0 0 0 0 0 0 0 0 0 0 0 0 0.1 0"/>
            <feBlend mode="normal" in2="BackgroundImageFix" result="effect1_dropShadow"/>
            <feBlend mode="normal" in="SourceGraphic" in2="effect1_dropShadow" result="shape"/>
        </filter>
    </defs>
</svg>