<svg fill="none" height="41" viewBox="0 0 165 41" width="165" xmlns="http://www.w3.org/2000/svg"><g fill="#fff"><path d="m17.8356 1.09888h-17.8356v5.83248c0 2.19774 1.7751 3.93054 3.93058 3.93054h15.55332l-13.65142 12.0031h8.53742c3.4234 0 6.2128 2.7895 6.2128 6.2129v3.4657c0 3.4234-2.7894 6.2128-6.2128 6.2128h-13.10197v-4.2264c0-1.5638 1.26793-2.8317 2.83171-2.8317h12.25666c.3381 0 .634-.2959.634-.634s-.2959-.634-.634-.634h-12.25666c-2.24001 0-4.0573757 1.8174-4.0573757 4.0574v5.4521h14.3276357c4.0996 0 7.4385-3.3389 7.4385-7.4385v-3.4657c0-4.0996-3.3389-7.4385-7.4385-7.4385h-5.2408l12.6793-11.1155v-5.45214c0-2.15548-1.7751-3.93058-3.9728-3.93058z"/><path d="m49.0266 15.6801 5.6634-6.17062c.7185-.76076 1.0989-1.77511 1.0566-2.83171-.0423-1.05661-.5072-2.02869-1.2679-2.74719l-4.2687-3.93058-14.3699 15.5533c-1.437 1.5638-2.1555 3.5502-2.071 5.6634.0846 2.1132.9721 4.0574 2.5359 5.4944l7.9457 7.354-.0845-5.6635c-.0846-4.7336 1.6483-9.2559 4.8604-12.7215z"/><path d="m54.7746 30.4304-7.988-7.354-.2535 1.0144c-.3382 1.3947-.5072 2.8317-.4649 4.2687l.1267 7.4385 4.8604 4.48 3.9306-4.2687c1.4793-1.606 1.3525-4.0996-.2113-5.5789z"/><path d="m34.8682 28.4862c-.3381 0-.634.2958-.634.6339v9.6363h-4.48c-1.5638 0-2.874-1.2679-2.874-2.874v-33.55786h4.5223c1.5638 0 2.874 1.26793 2.874 2.87398v6.80458c0 .3381.2958.6339.6339.6339s.634-.2958.634-.6339v-6.80458c0-2.24001-1.8596-4.09964-4.0996-4.09964h-5.7903v34.82582c0 2.24 1.8597 4.0996 4.0997 4.0996h5.7479v-10.9042c0-.3381-.2958-.6339-.6339-.6339z"/><path d="m82.2463 13.2709c-1.2679-.3803-2.3668-.5917-3.3389-.5917-1.0566 0-1.9019.2114-2.5359.5917-.6339.3804-.9298.9721-.9298 1.6906 0 .634.2114 1.1834.634 1.6061.4226.4226.9721.803 1.6483 1.0566.6762.2958 1.5638.5917 2.7049.9298 1.5638.4649 2.874.9298 3.8883 1.3947 1.0144.4649 1.8597 1.1411 2.5782 2.071.7185.9298 1.0566 2.1132 1.0566 3.5924 0 1.437-.3804 2.6627-1.1412 3.7193-.7607 1.0566-1.8173 1.8596-3.1698 2.409-1.3524.5495-2.874.8453-4.6491.8453-1.8173 0-3.5924-.3381-5.3675-1.0143-1.7329-.6762-3.2544-1.6061-4.5646-2.7472l1.8596-3.8038c1.1835 1.0989 2.4936 1.9442 3.9729 2.5781 1.4792.634 2.8317.9299 4.0996.9299 1.268 0 2.24-.2536 2.9585-.7185s1.0566-1.1412 1.0566-1.9442c0-.6762-.2113-1.2257-.6339-1.6483-.4227-.4226-.9721-.803-1.6483-1.0566-.6763-.2536-1.5638-.5494-2.7472-.8876-1.5638-.4649-2.874-.9298-3.8883-1.3524-1.0144-.4649-1.8597-1.1412-2.5782-2.0287-.7184-.8876-1.0566-2.071-1.0566-3.5502 0-1.3525.3804-2.5359 1.0989-3.5502.7185-1.0144 1.7329-1.81739 3.0853-2.36682 1.3102-.54944 2.874-.84529 4.6068-.84529 1.5215 0 3.0008.21132 4.48.67623 1.4793.46491 2.7895 1.05658 3.9729 1.81738l-1.8174 3.9306c-1.1411-.7608-2.3668-1.3525-3.6347-1.7329z"/><path d="m93.0237 8.95996h4.48v10.01664h11.6653v-10.01664h4.522v23.41444h-4.48v-9.5095h-11.665v9.5095h-4.4801v-23.41444z"/><path d="m136.218 10.2281c1.902 1.0566 3.423 2.4936 4.48 4.311 1.099 1.8173 1.648 3.846 1.648 6.086s-.549 4.2687-1.648 6.0861c-1.099 1.8596-2.578 3.2966-4.48 4.3532s-4.015 1.6061-6.34 1.6061c-2.324 0-4.437-.5495-6.339-1.6061s-3.424-2.5359-4.48-4.3532c-1.099-1.8596-1.649-3.8883-1.649-6.0861 0-2.24.55-4.2687 1.649-6.086 1.099-1.8174 2.578-3.2544 4.48-4.311 1.902-1.05662 4.015-1.56379 6.339-1.56379 2.325 0 4.438.50717 6.34 1.56379zm-10.27 3.5079c-1.226.7185-2.198 1.6483-2.916 2.874-.719 1.2257-1.057 2.5781-1.057 4.0151 0 1.4793.38 2.8317 1.099 4.0574.718 1.2257 1.69 2.1977 2.916 2.9162s2.536 1.0566 3.973 1.0566c1.395 0 2.705-.3381 3.93-1.0566 1.184-.7185 2.156-1.6905 2.874-2.9162.719-1.2257 1.057-2.5781 1.057-4.0574 0-1.4792-.338-2.8317-1.057-4.0151-.718-1.2257-1.648-2.1555-2.874-2.874-1.225-.7185-2.493-1.0566-3.93-1.0566-1.479 0-2.79.3381-4.015 1.0566z"/><path d="m162.591 11.0732c1.606 1.3947 2.409 3.3811 2.409 5.9592 0 2.6627-.803 4.7759-2.409 6.2552-1.606 1.4792-3.888 2.24-6.847 2.24h-5.114v6.8891h-4.48v-23.45674h9.594c2.959 0 5.241.67623 6.847 2.11324zm-3.17 9.3404c.888-.7185 1.353-1.8174 1.353-3.2966 0-1.437-.465-2.4936-1.353-3.2121-.887-.7185-2.198-1.0566-3.888-1.0566h-4.903v8.6642h4.903c1.69 0 2.958-.3381 3.888-1.0989z"/></g></svg>